<?xml version="1.0" encoding="UTF-8" standalone="no"?>
<!-- Created with Inkscape (http://www.inkscape.org/) -->

<svg
   xmlns:dc="http://purl.org/dc/elements/1.1/"
   xmlns:cc="http://creativecommons.org/ns#"
   xmlns:rdf="http://www.w3.org/1999/02/22-rdf-syntax-ns#"
   xmlns:svg="http://www.w3.org/2000/svg"
   xmlns="http://www.w3.org/2000/svg"
   xmlns:sodipodi="http://sodipodi.sourceforge.net/DTD/sodipodi-0.dtd"
   xmlns:inkscape="http://www.inkscape.org/namespaces/inkscape"
   version="1.2"
   width="50"
   height="50"
   id="svg3791"
   inkscape:version="0.48.3.1 r9886"
   sodipodi:docname="designers-logo.svg">
  <sodipodi:namedview
     pagecolor="#ffffff"
     bordercolor="#666666"
     borderopacity="1"
     objecttolerance="10"
     gridtolerance="10"
     guidetolerance="10"
     inkscape:pageopacity="0"
     inkscape:pageshadow="2"
     inkscape:window-width="1440"
     inkscape:window-height="841"
     id="namedview3181"
     showgrid="false"
     inkscape:zoom="4.72"
     inkscape:cx="25"
     inkscape:cy="25"
     inkscape:window-x="0"
     inkscape:window-y="27"
     inkscape:window-maximized="1"
     inkscape:current-layer="svg3791" />
  <defs
     id="defs3793" />
  <metadata
     id="metadata3796">
    <rdf:RDF>
      <cc:Work
         rdf:about="">
        <dc:format>image/svg+xml</dc:format>
        <dc:type
           rdf:resource="http://purl.org/dc/dcmitype/StillImage" />
        <dc:title></dc:title>
      </cc:Work>
    </rdf:RDF>
  </metadata>
  <g
     transform="matrix(1.299427,0,0,1.299427,-12.109036,-6.6654117)"
     id="g2990"
     style="fill:#798a1d;display:inline">
    <path
       inkscape:connector-curvature="0"
       id="path3-2"
       d="m 19.417,17.596 7.597,3.497 c 0.999,0.46 2.634,0.46 3.632,0 l 6.411,-2.951 10.514,-5.014 C 47.35,12.962 47.124,12.813 46.885,12.704 L 31.559,5.647 c -1.498,-0.69 -3.951,-0.69 -5.45,0 l -15.331,7.057 c -0.245,0.112 -0.477,0.267 -0.703,0.438 l 9.342,4.454 0,0 z"
       style="fill:#798a1d" />
    <path
       inkscape:connector-curvature="0"
       id="path5-7"
       d="m 28.098,24.693 c 0,-1.102 -0.817,-2.376 -1.816,-2.837 L 14.71,16.532 C 14.7,16.528 14.692,16.52 14.682,16.515 L 9.45,14.104 v 17.992 c 0,1.65 1.227,3.564 2.726,4.255 l 15.331,7.058 c 0.136,0.063 0.288,0.113 0.438,0.164 l 0.152,-9.367 v -9.513 z"
       style="fill:#798a1d" />
    <path
       inkscape:connector-curvature="0"
       id="path7-85"
       d="m 42.465,16.466 c -0.021,0.011 -0.039,0.026 -0.062,0.037 L 30.829,21.83 c -1,0.459 -1.816,1.736 -1.816,2.836 v 7.836 L 29.036,32.501 29,43.608 c 0.216,-0.065 0.421,-0.142 0.61,-0.229 l 15.33,-7.058 c 1.498,-0.69 2.726,-2.604 2.726,-4.255 l -0.003,-17.999 -5.198,2.399 z"
       style="fill:#798a1d" />
  </g>
</svg>
