<?xml version="1.0" encoding="UTF-8" standalone="no"?>
<!-- Created with Inkscape (http://www.inkscape.org/) -->

<svg
   xmlns:dc="http://purl.org/dc/elements/1.1/"
   xmlns:cc="http://creativecommons.org/ns#"
   xmlns:rdf="http://www.w3.org/1999/02/22-rdf-syntax-ns#"
   xmlns:svg="http://www.w3.org/2000/svg"
   xmlns="http://www.w3.org/2000/svg"
   xmlns:sodipodi="http://sodipodi.sourceforge.net/DTD/sodipodi-0.dtd"
   xmlns:inkscape="http://www.inkscape.org/namespaces/inkscape"
   version="1.2"
   width="50"
   height="50"
   id="svg3791"
   inkscape:version="0.48.3.1 r9886"
   sodipodi:docname="farmer-logo.svg">
  <sodipodi:namedview
     pagecolor="#ffffff"
     bordercolor="#666666"
     borderopacity="1"
     objecttolerance="10"
     gridtolerance="10"
     guidetolerance="10"
     inkscape:pageopacity="0"
     inkscape:pageshadow="2"
     inkscape:window-width="1440"
     inkscape:window-height="841"
     id="namedview3181"
     showgrid="false"
     inkscape:zoom="4.72"
     inkscape:cx="25"
     inkscape:cy="25"
     inkscape:window-x="0"
     inkscape:window-y="27"
     inkscape:window-maximized="1"
     inkscape:current-layer="svg3791" />
  <defs
     id="defs3793" />
  <metadata
     id="metadata3796">
    <rdf:RDF>
      <cc:Work
         rdf:about="">
        <dc:format>image/svg+xml</dc:format>
        <dc:type
           rdf:resource="http://purl.org/dc/dcmitype/StillImage" />
        <dc:title></dc:title>
      </cc:Work>
    </rdf:RDF>
  </metadata>
  <g
     transform="matrix(0.74501029,0,0,0.7546768,-233.68048,779.06509)"
     id="g6320"
     style="fill:#798a1d;display:inline">
    <path
       inkscape:connector-curvature="0"
       d="m 324.85367,-967.95934 -0.89906,-9.0529 c 0,-0.8328 1.06138,-0.095 2.40037,-0.095 l 0,0 c 1.32839,0 2.40236,-0.7374 2.40236,0.095 l 0,0 -0.75264,8.829 c 0,1.9279 -3.15103,1.1428 -3.15103,0.2239 z"
       id="path3"
       style="fill:#798a1d" />
    <path
       inkscape:connector-curvature="0"
       d="m 320.99969,-997.43104 c -6.5949,-2.98066 -6.05825,-7.67346 -6.05825,-7.67346 -0.83214,1.6564 0.93816,16.10566 7.81132,16.10566 3.0755,0 5.6594,-5.1029 -1.75307,-8.4322 z"
       id="path5"
       style="fill:#798a1d" />
    <path
       inkscape:connector-curvature="0"
       d="m 320.99969,-1007.6407 c -6.5949,-2.9715 -6.05825,-7.6642 -6.05825,-7.6642 -0.83214,1.6524 0.93816,16.10556 7.81132,16.10556 3.0755,0 5.6594,-5.10276 -1.75307,-8.44136 z"
       id="path7"
       style="fill:#798a1d" />
    <path
       inkscape:connector-curvature="0"
       d="m 320.99969,-1017.5436 c -6.5949,-2.9589 -6.05825,-7.6603 -6.05825,-7.6603 -0.83214,1.6564 0.93816,16.097 7.81132,16.097 3.0755,0 5.6594,-5.0896 -1.75307,-8.4367 z"
       id="path9"
       style="fill:#798a1d" />
    <path
       inkscape:connector-curvature="0"
       d="m 330.14403,-988.99884 c 6.87317,0 8.63486,-14.44926 7.81132,-16.10566 0,0 0.53269,4.6928 -6.06619,7.67346 -7.40452,3.3293 -4.82924,8.4322 -1.74513,8.4322 z"
       id="path11"
       style="fill:#798a1d" />
    <path
       inkscape:connector-curvature="0"
       d="m 320.99969,-986.97614 c -6.5949,-2.9801 -6.05825,-7.6729 -6.05825,-7.6729 -0.83214,1.6564 0.93816,16.1057 7.81132,16.1057 3.0755,0 5.6594,-5.1029 -1.75307,-8.4328 z"
       id="path13"
       style="fill:#798a1d" />
    <path
       inkscape:connector-curvature="0"
       d="m 330.14403,-978.54334 c 6.87317,0 8.63486,-14.4493 7.81132,-16.1057 0,0 0.53269,4.6928 -6.06619,7.6729 -7.40452,3.3299 -4.82924,8.4328 -1.74513,8.4328 z"
       id="path15"
       style="fill:#798a1d" />
    <path
       inkscape:connector-curvature="0"
       d="m 330.14403,-999.19934 c 6.87317,0 8.63486,-14.45316 7.81132,-16.10556 0,0 0.53269,4.6927 -6.06619,7.6642 -7.40452,3.3386 -4.82924,8.44136 -1.74513,8.44136 z"
       id="path17"
       style="fill:#798a1d" />
    <path
       inkscape:connector-curvature="0"
       d="m 330.14403,-1009.1069 c 6.87317,0 8.63486,-14.4406 7.81132,-16.097 0,0 0.53269,4.7014 -6.06619,7.6603 -7.40452,3.3471 -4.82924,8.4367 -1.74513,8.4367 z"
       id="path19"
       style="fill:#798a1d" />
    <path
       inkscape:connector-curvature="0"
       d="m 326.92609,-1016.7718 c 7.29123,0 -0.40084,-15.5444 -0.40084,-15.5444 -0.92755,1.4622 -6.8884,15.5444 0.40084,15.5444 z"
       id="path21"
       style="fill:#798a1d" />
    <path
       inkscape:connector-curvature="0"
       d="m 346.6399,-966.74694 4.39992,-7.6993 0,0 c 0.34915,-0.7414 -0.93153,-0.5386 -2.13338,-1.0905 l 0,0 c -1.22039,-0.5659 -1.87166,-1.6822 -2.2195,-0.9276 l -2.99931,8.5832 c -0.38626,0.8407 2.1347,2.8767 2.95227,1.1342 z"
       id="path23"
       style="fill:#798a1d" />
    <path
       inkscape:connector-curvature="0"
       d="m 352.60473,-996.22784 c -4.71594,-5.48176 -2.25992,-9.51066 -2.25992,-9.51066 -1.45095,1.1515 -5.92838,15.00576 0.29748,17.89976 2.79061,1.2985 7.28527,-2.2388 1.96244,-8.3891 z"
       id="path25"
       style="fill:#798a1d" />
    <path
       inkscape:connector-curvature="0"
       d="m 356.9099,-1005.4927 c -4.71859,-5.4693 -2.26455,-9.4975 -2.26455,-9.4975 -1.45361,1.1475 -5.93767,14.99716 0.29284,17.90036 2.79988,1.294 7.28526,-2.2347 1.97171,-8.40286 z"
       id="path27"
       style="fill:#798a1d" />
    <path
       inkscape:connector-curvature="0"
       d="m 361.08058,-1014.4641 c -4.73185,-5.4607 -2.26456,-9.5061 -2.26456,-9.5061 -1.44963,1.1514 -5.93037,14.9972 0.30212,17.8997 2.79061,1.29 7.28063,-2.234 1.96244,-8.3936 z"
       id="path29"
       style="fill:#798a1d" />
    <path
       inkscape:connector-curvature="0"
       d="m 357.34983,-984.71624 c 6.23183,2.8853 13.92323,-9.463 13.86227,-11.3221 0,0 -1.48806,4.4821 -8.73026,4.3999 -8.11741,-0.086 -7.92726,5.6163 -5.13201,6.9222 z"
       id="path31"
       style="fill:#798a1d" />
    <path
       inkscape:connector-curvature="0"
       d="m 348.20548,-986.74694 c -4.72522,-5.4785 -2.26853,-9.5021 -2.26853,-9.5021 -1.44963,1.1469 -5.92839,14.9972 0.30212,17.8819 2.79856,1.2986 7.28062,-2.2294 1.96641,-8.3798 z"
       id="path33"
       style="fill:#798a1d" />
    <path
       inkscape:connector-curvature="0"
       d="m 352.94527,-975.24394 c 6.22786,2.8986 13.91926,-9.463 13.86758,-11.3135 0,0 -1.49269,4.4814 -8.73026,4.3999 -8.12139,-0.087 -7.92726,5.6197 -5.13732,6.9136 z"
       id="path35"
       style="fill:#798a1d" />
    <path
       inkscape:connector-curvature="0"
       d="m 361.65433,-993.97584 c 6.22786,2.8939 13.91396,-9.47166 13.86228,-11.31816 0,0 -1.49203,4.4775 -8.7296,4.3999 -8.12668,-0.087 -7.92792,5.62826 -5.13268,6.91826 z"
       id="path37"
       style="fill:#798a1d" />
    <path
       inkscape:connector-curvature="0"
       d="m 365.82501,-1002.9651 c 6.23249,2.9025 13.90998,-9.4545 13.8583,-11.3089 0,0 -1.49667,4.494 -8.72562,4.3992 -8.12205,-0.086 -7.92329,5.6204 -5.13268,6.9097 z"
       id="path39"
       style="fill:#798a1d" />
    <path
       inkscape:connector-curvature="0"
       d="m 366.1311,-1011.272 c 6.60815,3.0708 6.18545,-14.2685 6.18545,-14.2685 -1.45758,0.9495 -12.7936,11.1969 -6.18545,14.2685 z"
       id="path41"
       style="fill:#798a1d" />
  </g>
</svg>
