<?xml version="1.0" encoding="UTF-8" standalone="no"?>
<!-- Created with Inkscape (http://www.inkscape.org/) -->

<svg
   xmlns:dc="http://purl.org/dc/elements/1.1/"
   xmlns:cc="http://creativecommons.org/ns#"
   xmlns:rdf="http://www.w3.org/1999/02/22-rdf-syntax-ns#"
   xmlns:svg="http://www.w3.org/2000/svg"
   xmlns="http://www.w3.org/2000/svg"
   xmlns:sodipodi="http://sodipodi.sourceforge.net/DTD/sodipodi-0.dtd"
   xmlns:inkscape="http://www.inkscape.org/namespaces/inkscape"
   version="1.2"
   width="50"
   height="50"
   id="svg3791"
   inkscape:version="0.48.3.1 r9886"
   sodipodi:docname="pizza.svg">
  <sodipodi:namedview
     pagecolor="#ffffff"
     bordercolor="#666666"
     borderopacity="1"
     objecttolerance="10"
     gridtolerance="10"
     guidetolerance="10"
     inkscape:pageopacity="0"
     inkscape:pageshadow="2"
     inkscape:window-width="1440"
     inkscape:window-height="841"
     id="namedview6"
     showgrid="false"
     inkscape:zoom="4.72"
     inkscape:cx="25.423729"
     inkscape:cy="25"
     inkscape:window-x="0"
     inkscape:window-y="27"
     inkscape:window-maximized="1"
     inkscape:current-layer="svg3791" />
  <defs
     id="defs3793" />
  <metadata
     id="metadata3796">
    <rdf:RDF>
      <cc:Work
         rdf:about="">
        <dc:format>image/svg+xml</dc:format>
        <dc:type
           rdf:resource="http://purl.org/dc/dcmitype/StillImage" />
        <dc:title />
      </cc:Work>
    </rdf:RDF>
  </metadata>
  <path
     d="m 49.885072,31.711406 -0.168123,-1.179099 c -0.162203,-0.91144 -0.40437,-1.761818 -0.77145,-2.439241 -1.366122,-2.52138 -11.775016,-15.706847 -14.767286,-16.562069 -0.50061,-0.143308 -1.832135,-0.475227 -3.395035,-0.475227 -2.145676,0 -3.895087,0.626572 -5.060641,1.81267 -1.051487,1.069876 -1.621828,2.561401 -1.698058,4.440587 -1.476938,0.675215 -5.114168,2.512757 -6.116447,4.628696 -0.505506,1.067144 -2.604121,2.019704 -4.290819,2.78626 -1.356936,0.616316 -2.528977,1.148815 -3.245825,1.811088 -0.3849054,0.355197 -0.9071375,0.883354 -1.5093785,1.493153 -1.7148134,1.735365 -4.3064923,4.358397 -5.8461546,5.007108 -1.742923,0.733637 -2.89495917,1.925103 -3.00740877,3.109039 -0.059987,0.634147 0.2022134,1.212023 0.702255,1.545104 0.90064947,0.600067 4.16864217,1.048789 6.48893497,1.048789 0.489228,0 0.9617462,-0.01878 1.4012546,-0.05731 1.3190885,-0.120601 6.0953783,-0.217866 10.6467693,-0.217866 5.445017,0 7.902084,0.133006 8.352418,0.247061 0.943898,0.23898 1.78995,0.226516 3.029024,0.13295 0.81092,-0.05942 1.755365,-0.129194 3.149055,-0.104323 1.430992,0.02846 2.752249,0.08383 3.83995,0.130844 0.967694,0.04098 1.754278,0.07461 2.278126,0.07461 0.351953,0 0.576294,-0.01423 0.73037,-0.04325 0.05691,-0.0068 0.348709,-0.03073 1.727243,-0.03073 2.4668,0 6.451099,0.07302 6.453256,0.07302 0.521669,0.0074 0.901737,-0.350302 0.963369,-0.834709 0.0239,-0.194075 0.419509,-3.406367 0.114623,-6.398084 z m -27.27105,-8.858987 c 1.945654,-0.495716 3.723721,-0.110298 3.971323,0.862842 0.247574,0.971438 -1.127171,2.163479 -3.072284,2.658688 -1.945655,0.495717 -3.723175,0.110299 -3.971318,-0.862796 -0.247061,-0.971484 1.128252,-2.162472 3.072279,-2.658734 z M 13.26851,27.67305 c 1.880238,-0.158959 3.46423,0.52975 3.537751,1.540744 0.07513,1.009878 -1.388289,1.960753 -3.267446,2.119724 -1.880244,0.159414 -3.464225,-0.529807 -3.537745,-1.541319 -0.074045,-1.010401 1.388278,-1.959171 3.26744,-2.119149 z m 21.569239,8.826495 c -0.0535,0.115762 -0.07894,0.235679 -0.08269,0.354685 -0.307617,-0.0085 -0.619537,-0.01651 -0.939038,-0.02277 -0.221109,-0.0057 -0.430892,-0.0057 -0.631973,-0.0057 -1.15528,0 -2.01053,0.06386 -2.697099,0.115193 -0.990402,0.07513 -1.673187,0.108136 -2.418691,-0.07951 -0.996343,-0.25298 -5.346631,-0.305397 -8.820041,-0.305397 -4.677351,0 -9.4298517,0.09891 -10.8197577,0.225377 -0.3238375,0.0296 -0.6768488,0.0387 -1.0336449,0.04325 3.5674766,-1.392649 7.7728796,-2.745766 9.0087156,-2.457642 0.73144,0.174041 1.277456,0.358441 1.759684,0.520587 1.128792,0.38115 2.022413,0.682262 3.635602,0.177855 0.452462,-0.141601 0.918492,-0.326513 1.389365,-0.515693 1.654798,-0.661744 2.724128,-1.018546 3.62208,-0.388719 2.052691,1.437514 3.730204,1.190459 5.352572,0.955816 l 0.126519,-0.01707 c 1.209337,-0.177285 2.420842,-0.01309 2.701966,0.363335 0.126518,0.168635 0.0708,0.547622 -0.153553,1.037436 z M 32.06496,30.805907 c -2.414359,0.178936 -4.448679,-0.577398 -4.545984,-1.692662 -0.09783,-1.114781 1.779683,-2.164629 4.192967,-2.344106 2.413278,-0.181098 4.449214,0.577399 4.546525,1.692088 0.09732,1.113683 -1.780224,2.165158 -4.193508,2.34468 z m 7.540963,-1.402956 c -0.393556,-1.333652 -0.988774,-2.692711 -1.880779,-3.393378 -2.21218,-1.738621 -4.966585,-4.05728 -6.061856,-5.351498 -0.145414,-0.171366 -3.055529,-3.561501 -5.685591,-3.803713 0.124868,-1.130978 0.490879,-2.021907 1.106085,-2.647374 1.008779,-1.026076 2.568981,-1.241738 3.699931,-1.241738 1.322874,0 2.447347,0.281096 2.8701,0.401069 1.722918,0.492017 9.35579,9.442857 12.504839,13.915269 -1.060138,-0.430266 -2.286235,-0.542157 -3.633439,-0.03699 -1.366116,0.511424 -2.284614,1.246627 -2.91929,2.158113 z m 8.359987,7.618303 c -1.319088,-0.02049 -3.849682,-0.05731 -5.61261,-0.05731 -1.602364,0 -1.891046,0.02903 -2.048907,0.05731 -0.07353,0.01081 -0.187074,0.01651 -0.328675,0.01878 0.0068,-0.123786 0.01423,-0.256793 0.01935,-0.378474 0.221109,-4.542712 0.435729,-6.594333 3.200408,-7.630141 2.338681,-0.879039 4.043222,1.200191 4.703304,2.200285 0.283258,1.932149 0.1984,4.292981 0.06704,5.78939 z"
     id="path3-7"
     style="fill:#798a1d;fill-opacity:1;display:inline"
     inkscape:connector-curvature="0" />
</svg>
