<?xml version="1.0" encoding="UTF-8" standalone="no"?>
<!-- Created with Inkscape (http://www.inkscape.org/) -->

<svg
   xmlns:dc="http://purl.org/dc/elements/1.1/"
   xmlns:cc="http://creativecommons.org/ns#"
   xmlns:rdf="http://www.w3.org/1999/02/22-rdf-syntax-ns#"
   xmlns:svg="http://www.w3.org/2000/svg"
   xmlns="http://www.w3.org/2000/svg"
   xmlns:sodipodi="http://sodipodi.sourceforge.net/DTD/sodipodi-0.dtd"
   xmlns:inkscape="http://www.inkscape.org/namespaces/inkscape"
   version="1.2"
   width="50"
   height="50"
   id="svg3791"
   inkscape:version="0.48.3.1 r9886"
   sodipodi:docname="producer-logo.svg">
  <sodipodi:namedview
     pagecolor="#ffffff"
     bordercolor="#666666"
     borderopacity="1"
     objecttolerance="10"
     gridtolerance="10"
     guidetolerance="10"
     inkscape:pageopacity="0"
     inkscape:pageshadow="2"
     inkscape:window-width="1440"
     inkscape:window-height="841"
     id="namedview3181"
     showgrid="false"
     inkscape:zoom="4.72"
     inkscape:cx="25.423729"
     inkscape:cy="25"
     inkscape:window-x="0"
     inkscape:window-y="27"
     inkscape:window-maximized="1"
     inkscape:current-layer="svg3791" />
  <defs
     id="defs3793" />
  <metadata
     id="metadata3796">
    <rdf:RDF>
      <cc:Work
         rdf:about="">
        <dc:format>image/svg+xml</dc:format>
        <dc:type
           rdf:resource="http://purl.org/dc/dcmitype/StillImage" />
        <dc:title />
      </cc:Work>
    </rdf:RDF>
  </metadata>
  <g
     id="g7990"
     transform="matrix(-0.46813348,-0.46813348,-0.46813348,0.46813348,-329.54425,1053.3444)"
     style="fill:#798a1d;fill-opacity:1;display:inline">
    <path
       id="path9-5"
       d="m 742.49981,-1448.1316 c 0,0.871 -0.61,1.576 -1.363,1.576 l 0,0 c -0.753,0 -1.364,-0.705 -1.364,-1.576 v -58.06 c 0,-0.871 0.61,-1.576 1.363,-1.576 l 0,0 c 0.753,0 1.364,0.706 1.364,1.576 v 58.06 z"
       inkscape:connector-curvature="0"
       style="fill:#798a1d;fill-opacity:1" />
    <path
       id="path11-5"
       d="m 743.06281,-1501.3286 c 0,0 -2.525,0.197 -4.104,-0.515 -1.911,-0.861 -4.188,-1.526 -6.761,-1.568 -10.36,-0.168 -16.213,3.712 -16.213,3.712 0,0 6.614,-6.136 14.773,-6.136 3.1,0 5.976,0.543 8.351,1.348 1.53,0.518 3.893,-0.198 3.893,-0.198 l 0.061,3.357 z"
       inkscape:connector-curvature="0"
       style="fill:#798a1d;fill-opacity:1" />
  </g>
  <g
     id="g3067"
     style="fill:#798a1d;fill-opacity:1"
     transform="matrix(4.2751689,0,0,4.2751689,-97.551631,-131.02784)">
    <path
       id="path3"
       d="m 27.82564,37.701656 c 0.385909,0 0.699707,-0.313494 0.699707,-0.719181 h -0.431244 c 0,0.202843 -0.118663,0.287936 -0.266739,0.287936 -0.214811,0 -0.387836,-0.155276 -0.387836,-0.370087 0,-0.29818 0.246049,-0.54078 0.544228,-0.54078 0.402542,0 0.736929,0.32749 0.736929,0.729931 0,0.532767 -0.445342,0.966243 -0.95245,0.966243 v 0.431245 c 0.709951,0 1.383695,-0.629422 1.383695,-1.399922 0,-0.640275 -0.534695,-1.16361 -1.175071,-1.16361 -0.535911,0 -0.972024,0.431245 -0.972024,0.967156 1.01e-4,0.452543 0.368363,0.811069 0.820805,0.811069 z"
       inkscape:connector-curvature="0"
       style="fill:#798a1d;fill-opacity:1" />
    <path
       id="path5"
       d="m 33.805761,38.404913 0.348383,-0.348485 0.0019,-0.760154 -0.268362,-0.268362 0.0024,-0.0024 -0.409236,-0.409338 -0.760256,-0.0019 -0.350716,0.350716 -0.01856,-5.07e-4 -0.348383,-0.348384 -0.760256,-0.0019 -0.350716,0.350716 -0.01846,-5.08e-4 -0.348484,-0.348383 -0.760256,-0.0019 -0.416133,0.416133 0.304873,0.304873 0.289356,-0.289355 0.403151,0.0011 0.344427,0.344428 0.375564,0.0092 0.354672,-0.354671 0.40315,0.0011 0.344428,0.344428 0.375666,0.0092 0.354671,-0.354672 0.403151,0.0011 0.135702,0.135703 -0.0024,0.0024 0.289356,0.289356 -0.0011,0.403049 -0.344427,0.344428 -0.0092,0.375767 0.354773,0.354671 -0.0012,0.783178 -0.60924,0.39098 H 29.660197 L 29.264146,39.797002 28.988077,39.216465 27.680752,39.04131 26.46917,39.321842 c -0.163491,-0.148785 -0.312682,-0.449196 -0.397268,-0.675265 l 0.845045,-0.927906 -0.318971,-0.290471 -1.01381,1.113203 0.03631,0.117649 c 0.02525,0.08225 0.25964,0.810156 0.683886,1.077706 l 0.07607,0.04797 1.321016,-0.306293 0.997786,0.133268 0.216636,0.45447 0.475262,0.392502 v 1.189168 h -0.405686 v 0.405686 h 0.811372 v -1.521322 h 0.60853 v 1.419902 h -0.405686 v 0.405686 h 0.811372 v -1.825588 h 0.912794 v 1.115637 h -0.405686 v 0.405686 h 0.811373 v -1.521323 h 0.677902 l 0.03205,0.07089 v 1.349009 H 32.43378 v 0.405686 h 0.811373 v -1.825588 l 0,0 v -0.01298 l 0.885309,-0.549503 0.01369,-1.195861 -0.344732,-0.350513 0.0064,-0.01846 z"
       inkscape:connector-curvature="0"
       style="fill:#798a1d;fill-opacity:1" />
    <polygon
       id="polygon7"
       points="63.802,40.266 67.299,36.769 71.272,36.779 74.068,39.574 77.074,36.566 73.038,32.531 65.543,32.513 62.085,35.971 61.902,35.966 58.467,32.531 50.972,32.513 46.869,36.615 49.875,39.621 52.728,36.769 56.701,36.779 60.098,40.175 "
       transform="matrix(0.10142158,0,0,0.10142158,25.334219,34.548357)"
       style="fill:#798a1d;fill-opacity:1" />
    <polygon
       id="polygon9"
       points="66.781,49.288 69.789,46.282 65.753,42.245 58.257,42.227 54.154,46.329 57.16,49.335 60.013,46.482 63.987,46.493 "
       transform="matrix(0.10142158,0,0,0.10142158,25.334219,34.548357)"
       style="fill:#798a1d;fill-opacity:1" />
  </g>
</svg>
