<?xml version="1.0" encoding="UTF-8" standalone="no"?>
<!-- Created with Inkscape (http://www.inkscape.org/) -->

<svg
   xmlns:dc="http://purl.org/dc/elements/1.1/"
   xmlns:cc="http://creativecommons.org/ns#"
   xmlns:rdf="http://www.w3.org/1999/02/22-rdf-syntax-ns#"
   xmlns:svg="http://www.w3.org/2000/svg"
   xmlns="http://www.w3.org/2000/svg"
   version="1.2"
   width="50"
   height="50"
   id="svg3791">
  <defs
     id="defs3793" />
  <metadata
     id="metadata3796">
    <rdf:RDF>
      <cc:Work
         rdf:about="">
        <dc:format>image/svg+xml</dc:format>
        <dc:type
           rdf:resource="http://purl.org/dc/dcmitype/StillImage" />
        <dc:title></dc:title>
      </cc:Work>
    </rdf:RDF>
  </metadata>
  <g
     transform="matrix(0.54061463,0,0,0.54061463,125.6153,35.537403)"
     id="g3523">
    <path
       d="m -140.1509,-13.668288 c -0.1246,-0.37752 -1.63341,-4.36115 -2.93004,-7.90188 -1.13007,-2.67097 -1.90361,-3.18667 -3.64807,-3.18667 l -1.55693,0.01 -1.5557,-0.01 c -1.74571,0 -2.518,0.5157 -3.64807,3.18667 -1.2954,3.54073 -2.80421,7.5256 -2.93006,7.90188 -0.24673,0.74516 -0.64274,2.19229 0.41454,2.59078 1.05728,0.39849 1.53843,-0.50334 1.98996,-1.6803 0.45031,-1.1782 1.39903,-4.71769 2.20217,-6.78291 0.0691,-0.17766 0.14804,-0.34915 0.22205,-0.52432 0.0309,0.007 0.0617,0.0148 0.0913,0.0222 -0.0494,0.86729 -0.12215,4.03915 -0.14312,4.90768 -0.0999,3.88864 -1.64451,16.1997798 -2.08742,18.7769698 -0.2233,1.56187 0.0975,2.32924 1.1128,2.32924 1.01658,0 1.46317,-0.18876 1.77777,-1.79628 0.46263,-3.23104997 1.33733,-9.99052 1.63466,-12.29139 0.0629,-0.49472 0.16285,-1.08073 0.92034,-1.0869 0.75749,0.006 0.85742,0.59218 0.92158,1.0869 0.29609,2.30087 1.17078,9.06034003 1.63466,12.29139 0.31459,1.60752 0.76119,1.79628 1.77653,1.79628 1.01534,0 1.3361,-0.76737 1.1128,-2.32924 -0.44166,-2.57719 -1.98749,-14.8883298 -2.08742,-18.7769698 -0.0222,-0.8673 -0.095,-4.04039 -0.14312,-4.90768 0.0296,-0.007 0.0605,-0.0148 0.0913,-0.0222 0.074,0.17517 0.15298,0.34666 0.22206,0.52432 0.80316,2.06522 1.75064,5.60471 2.20217,6.78291 0.45153,1.17696 0.93145,2.07879 1.98873,1.6803 1.05728,-0.39849 0.66127,-1.84562 0.41452,-2.59078 z"
       id="path5-3"
       style="fill:#798a1d;fill-rule:evenodd;display:inline" />
    <path
       d="m -148.2329,-25.518028 c 1.77408,-0.005 3.29152,-1.58654 3.28907,-3.42599 -0.003,-1.81477 -1.49156,-3.35938 -3.27057,-3.39269 -1.79133,-0.0321 -3.35813,1.5705 -3.3495,3.42353 0.01,1.83205 1.5483,3.40132 3.331,3.39515 z"
       id="path7-7"
       style="fill:#798a1d;fill-rule:evenodd;display:inline" />
    <path
       d="m -161.99486,-21.570168 c -1.13009,-2.67097 -1.90238,-3.18667 -3.64807,-3.18667 l -1.55695,0.01 -1.5557,-0.01 c -1.74569,0 -2.51798,0.5157 -3.64806,3.18667 -1.29539,3.54073 -2.8042,7.5256 -2.93005,7.90188 -0.24674,0.74516 -0.64276,2.19229 0.41454,2.59078 1.05728,0.39849 1.53843,-0.50334 1.98871,-1.6803 0.45031,-1.1782 1.39904,-4.71769 2.20217,-6.78291 0.0691,-0.17766 0.14805,-0.34915 0.22208,-0.52432 0.0308,0.007 0.0617,0.0148 0.0913,0.0222 -0.0493,0.86729 -0.1209,4.03915 -0.1431,4.90768 -0.0999,3.88864 -1.64453,16.1997798 -2.08744,18.7769698 -0.2233,1.56187 0.0975,2.32924 1.11282,2.32924 1.01534,0 1.46192,-0.18876 1.77653,-1.79628 0.46263,-3.23104997 1.33733,-9.99052 1.63466,-12.29139 0.0629,-0.49472 0.16284,-1.08073 0.92034,-1.0869 0.75749,0.006 0.85742,0.59218 0.92158,1.0869 0.29609,2.30087 1.17078,9.06034003 1.63466,12.29139 0.31459,1.60752 0.76119,1.79628 1.77776,1.79628 1.01658,0 1.3361,-0.76737 1.11281,-2.32924 -0.44168,-2.57719 -1.98751,-14.8883298 -2.08621,-18.7769698 -0.0222,-0.8673 -0.095,-4.04039 -0.14434,-4.90768 0.0308,-0.007 0.0605,-0.0148 0.0913,-0.0222 0.074,0.17517 0.15297,0.34666 0.22207,0.52432 0.80314,2.06522 1.75062,5.60471 2.20215,6.78291 0.45155,1.17696 0.93268,2.07879 1.98998,1.6803 1.05728,-0.39726 0.66127,-1.84562 0.41452,-2.59078 -0.1246,-0.37752 -1.63343,-4.36115 -2.93004,-7.90188 z"
       id="path9-2"
       style="fill:#798a1d;fill-rule:evenodd;display:inline" />
    <path
       d="m -170.47782,-28.913178 c 0.009,1.83205 1.5483,3.4001 3.331,3.39515 1.77406,-0.005 3.29152,-1.58654 3.28905,-3.42599 -0.002,-1.81477 -1.49154,-3.35938 -3.27055,-3.39269 -1.79133,-0.0321 -3.35813,1.5705 -3.3495,3.42353 z"
       id="path11-0"
       style="fill:#798a1d;fill-rule:evenodd;display:inline" />
    <path
       d="m -180.9088,-21.570168 c -1.13007,-2.67097 -1.90236,-3.18667 -3.64807,-3.18667 l -1.55693,0.01 -1.5557,-0.01 c -1.74446,0 -2.51798,0.5157 -3.64806,3.18667 -1.29539,3.54073 -2.80422,7.5256 -2.93005,7.90188 -0.24674,0.74516 -0.64276,2.19229 0.41452,2.59078 1.0573,0.39849 1.53843,-0.50334 1.98873,-1.6803 0.45154,-1.1782 1.39904,-4.71769 2.20217,-6.78291 0.0691,-0.17766 0.14805,-0.34915 0.22206,-0.52432 0.0308,0.007 0.0605,0.0148 0.0913,0.0222 -0.0493,0.86729 -0.1209,4.03915 -0.14312,4.90768 -0.0999,3.88864 -1.64451,16.1997798 -2.08619,18.7769698 -0.2233,1.56187 0.0962,2.32924 1.11282,2.32924 1.01656,0 1.46192,-0.18876 1.77653,-1.79628 0.46263,-3.23104997 1.33732,-9.99052 1.63466,-12.29139 0.0629,-0.49472 0.16284,-1.08073 0.92033,-1.0869 0.7575,0.006 0.85743,0.59218 0.92159,1.0869 0.29608,2.30087 1.17078,9.06034003 1.63341,12.29139 0.31461,1.60752 0.76121,1.79628 1.77778,1.79628 1.01656,0 1.3361,-0.76737 1.11279,-2.32924 -0.44166,-2.57719 -1.98749,-14.8883298 -2.08619,-18.7769698 -0.0222,-0.8673 -0.095,-4.04039 -0.14434,-4.90768 0.0308,-0.007 0.0605,-0.0148 0.0913,-0.0222 0.074,0.17517 0.15422,0.34666 0.22206,0.52432 0.8019,2.06522 1.75063,5.60471 2.20216,6.78291 0.45031,1.17696 0.93146,2.07879 1.98874,1.6803 1.05728,-0.39726 0.66249,-1.84562 0.41451,-2.59078 -0.12337,-0.37752 -1.63218,-4.36115 -2.92881,-7.90188 z"
       id="path13-09"
       style="fill:#798a1d;fill-rule:evenodd;display:inline" />
    <path
       d="m -186.06074,-25.518028 c 1.77406,-0.005 3.29152,-1.58654 3.28905,-3.42599 -0.003,-1.81477 -1.49154,-3.35938 -3.27055,-3.39269 -1.79135,-0.0321 -3.35937,1.56927 -3.3495,3.42353 0.01,1.83205 1.5483,3.40132 3.331,3.39515 z"
       id="path15-17"
       style="fill:#798a1d;fill-rule:evenodd;display:inline" />
    <path
       d="m -199.82272,-21.570168 c -1.13007,-2.67097 -1.90238,-3.18667 -3.64807,-3.18667 l -1.5557,0.01 -1.5557,-0.01 c -1.74569,0 -2.51923,0.5157 -3.64807,3.18667 -1.29661,3.54073 -2.80419,7.5256 -2.93004,7.90188 -0.24675,0.74516 -0.64276,2.19229 0.41452,2.59078 1.0573,0.39849 1.53843,-0.50334 1.98873,-1.6803 0.45153,-1.1782 1.39903,-4.71769 2.20217,-6.78291 0.0691,-0.17766 0.14804,-0.34915 0.22207,-0.52432 0.0309,0.007 0.0604,0.0148 0.0913,0.0222 -0.0493,0.86729 -0.1209,4.03915 -0.14312,4.90768 -0.0999,3.88864 -1.64451,16.1997798 -2.08619,18.7769698 -0.2233,1.56187 0.0962,2.32924 1.11281,2.32924 1.01657,0 1.46317,-0.18876 1.77776,-1.79628 0.46265,-3.23104997 1.33735,-9.99052 1.63343,-12.29139 0.0641,-0.49472 0.16285,-1.08073 0.92159,-1.0869 0.75749,0.006 0.85742,0.59218 0.92156,1.0869 0.29609,2.30087 1.17078,9.06034003 1.63343,12.29139 0.31583,1.60752 0.76119,1.79628 1.77776,1.79628 1.01659,0 1.33612,-0.76737 1.11281,-2.32924 -0.44167,-2.57719 -1.9875,-14.8883298 -2.08619,-18.7769698 -0.0222,-0.8673 -0.095,-4.04039 -0.14311,-4.90768 0.0296,-0.007 0.0605,-0.0148 0.0913,-0.0222 0.074,0.17517 0.1542,0.34666 0.22206,0.52432 0.80313,2.06522 1.75063,5.60471 2.20216,6.78291 0.45153,1.17696 0.93144,2.07879 1.98874,1.6803 1.05728,-0.39726 0.66249,-1.84562 0.41451,-2.59078 -0.12707,-0.37752 -1.63588,-4.36115 -2.93251,-7.90188 z"
       id="path17-3"
       style="fill:#798a1d;fill-rule:evenodd;display:inline" />
    <path
       d="m -204.97467,-25.518028 c 1.77407,-0.005 3.29153,-1.58654 3.28906,-3.42599 -0.003,-1.81477 -1.49156,-3.35938 -3.27055,-3.39269 -1.79135,-0.0321 -3.35937,1.56927 -3.34952,3.42353 0.01,1.83205 1.5483,3.40132 3.33101,3.39515 z"
       id="path19-5"
       style="fill:#798a1d;fill-rule:evenodd;display:inline" />
    <path
       d="m -218.73541,-21.570168 c -1.13007,-2.67097 -1.90361,-3.18667 -3.64807,-3.18667 l -1.55693,0.01 -1.5557,-0.01 c -1.74569,0 -2.51923,0.5157 -3.64807,3.18667 -1.29663,3.54073 -2.80421,7.5256 -2.93004,7.90188 -0.24797,0.74516 -0.64276,2.19229 0.41452,2.59078 1.05728,0.39849 1.53843,-0.50334 1.98873,-1.6803 0.45153,-1.1782 1.39901,-4.71769 2.20217,-6.78291 0.0691,-0.17766 0.14804,-0.34915 0.22206,-0.52432 0.0308,0.007 0.0605,0.0148 0.0913,0.0222 -0.0494,0.86729 -0.12215,4.03915 -0.14435,4.90768 -0.0999,3.88864 -1.64453,16.1997798 -2.08619,18.7769698 -0.2233,1.56187 0.0962,2.32924 1.1128,2.32924 1.01656,0 1.46317,-0.18876 1.77777,-1.79628 0.46264,-3.23104997 1.33733,-9.99052 1.63342,-12.29139 0.0642,-0.49472 0.16284,-1.08073 0.92158,-1.0869 0.75749,0.006 0.85742,0.59218 0.92158,1.0869 0.29609,2.30087 1.17078,9.06034003 1.63466,12.29139 0.31459,1.60752 0.76119,1.79628 1.77653,1.79628 1.01534,0 1.3361,-0.76737 1.1128,-2.32924 -0.44166,-2.57719 -1.98626,-14.8883298 -2.08619,-18.7769698 -0.0222,-0.8673 -0.095,-4.04039 -0.14312,-4.90768 0.0296,-0.007 0.0605,-0.0148 0.0913,-0.0222 0.0753,0.17517 0.15422,0.34666 0.22206,0.52432 0.80315,2.06522 1.75063,5.60471 2.20217,6.78291 0.45153,1.17696 0.93145,2.07879 1.98873,1.6803 1.05728,-0.39726 0.66251,-1.84562 0.41452,-2.59078 -0.12583,-0.37752 -1.63464,-4.36115 -2.93004,-7.90188 z"
       id="path21-4"
       style="fill:#798a1d;fill-rule:evenodd;display:inline" />
    <path
       d="m -223.8886,-25.518028 c 1.77406,-0.005 3.29152,-1.58654 3.28907,-3.42599 -0.003,-1.81477 -1.49156,-3.35938 -3.27057,-3.39269 -1.79133,-0.0321 -3.35937,1.56927 -3.34826,3.42353 0.009,1.83205 1.54706,3.40132 3.32976,3.39515 z"
       id="path23-3"
       style="fill:#798a1d;fill-rule:evenodd;display:inline" />
    <path
       d="m -212.46697,-33.585228 c 0.13942,0.19741 0.51817,0.0136 0.51817,-0.32446 -0.002,-1.48167 -1.21767,-2.74252 -2.67097,-2.76967 -1.46195,-0.0259 -2.74253,1.28183 -2.73389,2.79559 0.002,0.33063 0.41575,0.43796 0.58478,0.21713 0.50828,-0.66868 1.29661,-1.10664 2.14911,-1.09182 0.87592,0.0161 1.66303,0.48237 2.1528,1.17323 z"
       id="path25-9"
       style="fill:#798a1d;fill-rule:evenodd;display:inline" />
    <path
       d="m -193.55427,-33.585228 c 0.13941,0.19741 0.51939,0.0136 0.51816,-0.32446 -0.002,-1.48167 -1.21767,-2.74252 -2.67097,-2.76967 -1.46317,-0.0259 -2.74253,1.28183 -2.73388,2.79559 0.002,0.33063 0.41574,0.43796 0.58476,0.21713 0.50829,-0.66868 1.29663,-1.10664 2.14912,-1.09182 0.87717,0.0161 1.66426,0.48237 2.15281,1.17323 z"
       id="path27-8"
       style="fill:#798a1d;fill-rule:evenodd;display:inline" />
    <path
       d="m -174.64033,-33.585228 c 0.13939,0.19741 0.51939,0.0136 0.51814,-0.32446 -0.002,-1.48167 -1.21767,-2.74252 -2.67097,-2.76967 -1.46317,-0.0259 -2.74253,1.28183 -2.73388,2.79559 0.002,0.33063 0.41576,0.43796 0.58478,0.21713 0.50827,-0.66868 1.29785,-1.10664 2.15035,-1.09182 0.87592,0.0161 1.66303,0.48237 2.15158,1.17323 z"
       id="path29-1"
       style="fill:#798a1d;fill-rule:evenodd;display:inline" />
    <path
       d="m -155.72641,-33.585228 c 0.13939,0.19741 0.51939,0.0136 0.51814,-0.32446 -0.002,-1.48167 -1.21765,-2.74252 -2.67097,-2.76967 -1.46317,-0.0259 -2.74251,1.28183 -2.73511,2.79559 0.002,0.33063 0.41576,0.43796 0.58478,0.21713 0.50827,-0.66868 1.29785,-1.10664 2.15033,-1.09182 0.87717,0.0161 1.66428,0.48237 2.15283,1.17323 z"
       id="path31-6"
       style="fill:#798a1d;fill-rule:evenodd;display:inline" />
    <path
       d="m -206.45265,-38.402828 c 0.46018,-0.60452 1.17449,-1.00177 1.94678,-0.98819 0.79328,0.0135 1.50636,0.43548 1.94926,1.06098 0.12708,0.17888 0.47004,0.0123 0.47004,-0.29239 -0.002,-1.34227 -1.10293,-2.48468 -2.41806,-2.50813 -1.32377,-0.0247 -2.48345,1.15968 -2.47605,2.53157 0,0.29854 0.37629,0.39602 0.52803,0.19616 z"
       id="path33-8"
       style="fill:#798a1d;fill-rule:evenodd;display:inline" />
    <path
       d="m -188.2518,-38.402828 c 0.46017,-0.60452 1.17448,-1.00177 1.94679,-0.98819 0.79204,0.0135 1.50634,0.43548 1.94802,1.06098 0.12705,0.17888 0.47003,0.0123 0.47003,-0.29239 -0.002,-1.34227 -1.10292,-2.48468 -2.41805,-2.50813 -1.325,-0.0247 -2.48346,1.15968 -2.47728,2.53157 0.002,0.29854 0.3775,0.39602 0.53049,0.19616 z"
       id="path35-4"
       style="fill:#798a1d;fill-rule:evenodd;display:inline" />
    <path
       d="m -170.05096,-38.402828 c 0.46018,-0.60452 1.17448,-1.00177 1.94679,-0.98819 0.79326,0.0135 1.50634,0.43548 1.94925,1.06098 0.12707,0.17888 0.47005,0.0123 0.47005,-0.29239 -0.002,-1.34227 -1.10294,-2.48468 -2.41807,-2.50813 -1.325,-0.0247 -2.48346,1.15968 -2.47604,2.53157 0,0.29854 0.37505,0.39602 0.52802,0.19616 z"
       id="path37-8"
       style="fill:#798a1d;fill-rule:evenodd;display:inline" />
    <path
       d="m -197.4096,-42.502428 c 0.38122,-0.50089 0.9734,-0.83029 1.61369,-0.81918 0.65756,0.0112 1.24851,0.36023 1.61492,0.87962 0.10487,0.14805 0.38986,0.01 0.38861,-0.24302 -0.002,-1.11157 -0.91416,-2.05783 -2.00476,-2.0788 -1.09799,-0.0197 -2.05782,0.96105 -2.05165,2.09729 0.002,0.2492 0.31212,0.33064 0.43919,0.16409 z"
       id="path39-3"
       style="fill:#798a1d;fill-rule:evenodd;display:inline" />
    <path
       d="m -177.07938,-42.692428 c 0.38122,-0.50088 0.9734,-0.83028 1.61369,-0.81918 0.65757,0.0112 1.24852,0.36025 1.61492,0.87964 0.10485,0.14804 0.38984,0.01 0.38984,-0.24305 -0.002,-1.1128 -0.91416,-2.05782 -2.00476,-2.07879 -1.09677,-0.0197 -2.05782,0.96107 -2.05165,2.09731 0,0.24797 0.31089,0.32938 0.43796,0.16407 z"
       id="path41-4"
       style="fill:#798a1d;fill-rule:evenodd;display:inline" />
  </g>
</svg>
