<?xml version="1.0" encoding="UTF-8" standalone="no"?>
<!-- Created with Inkscape (http://www.inkscape.org/) -->

<svg
   xmlns:dc="http://purl.org/dc/elements/1.1/"
   xmlns:cc="http://creativecommons.org/ns#"
   xmlns:rdf="http://www.w3.org/1999/02/22-rdf-syntax-ns#"
   xmlns:svg="http://www.w3.org/2000/svg"
   xmlns="http://www.w3.org/2000/svg"
   xmlns:sodipodi="http://sodipodi.sourceforge.net/DTD/sodipodi-0.dtd"
   xmlns:inkscape="http://www.inkscape.org/namespaces/inkscape"
   version="1.2"
   width="50"
   height="50"
   id="svg3791"
   inkscape:version="0.48.3.1 r9886"
   sodipodi:docname="sheep.svg">
  <sodipodi:namedview
     pagecolor="#ffffff"
     bordercolor="#666666"
     borderopacity="1"
     objecttolerance="10"
     gridtolerance="10"
     guidetolerance="10"
     inkscape:pageopacity="0"
     inkscape:pageshadow="2"
     inkscape:window-width="1440"
     inkscape:window-height="841"
     id="namedview25"
     showgrid="false"
     inkscape:zoom="3.337544"
     inkscape:cx="33.593074"
     inkscape:cy="6.8424713"
     inkscape:window-x="0"
     inkscape:window-y="27"
     inkscape:window-maximized="1"
     inkscape:current-layer="svg3791" />
  <defs
     id="defs3793" />
  <metadata
     id="metadata3796">
    <rdf:RDF>
      <cc:Work
         rdf:about="">
        <dc:format>image/svg+xml</dc:format>
        <dc:type
           rdf:resource="http://purl.org/dc/dcmitype/StillImage" />
        <dc:title></dc:title>
      </cc:Work>
    </rdf:RDF>
  </metadata>
  <g
     id="g3015"
     transform="matrix(0.71878178,0,0,0.71878178,10.532994,21.954315)">
    <path
       style="fill:#798a1d;fill-opacity:1"
       id="path3"
       d="m 3.5361716,-7.4400779 c 3.131687,0 5.678189,-2.544033 5.678189,-5.8362141 h -3.499589 c 0,1.64609 -0.962963,2.336625 -2.164609,2.336625 -1.74321,0 -3.14732496,-1.260082 -3.14732496,-3.003292 0,-2.419753 1.99670796,-4.388477 4.41646096,-4.388477 3.266667,0 5.9802474,2.657613 5.9802474,5.923457 0,4.3234561 -3.6139924,7.8411521 -7.7292184,7.8411521 v 3.499588 c 5.761317,0 11.2288074,-5.107819 11.2288074,-11.3604931 0,-5.195885 -4.3390954,-9.442799 -9.5358034,-9.442799 -4.34897096,0 -7.888066,3.499589 -7.888066,7.84856 8.23e-4,3.672428 2.98930104,6.5818931 6.660906,6.5818931 z"
       inkscape:connector-curvature="0" />
    <path
       style="fill:#798a1d;fill-opacity:1"
       id="path5"
       d="m 52.06539,-1.7330819 2.82716,-2.827984 0.01564,-6.1687241 -2.177778,-2.177778 0.01975,-0.01975 -3.320986,-3.321811 -6.169548,-0.01564 -2.84609,2.846091 -0.150617,-0.0041 -2.827161,-2.827161 -6.169547,-0.01564 -2.846091,2.846091 -0.149794,-0.0041 -2.827984,-2.827161 -6.169547,-0.01564 -3.376955,3.376955 2.474074,2.474074 2.348149,-2.348148 3.271605,0.009 2.795061,2.7950621 3.047737,0.0749 2.878189,-2.8781891 3.271605,0.0091 2.795062,2.7950611 3.04856,0.0749 2.878189,-2.8781891 3.271605,0.009 1.101234,1.101235 -0.01975,0.01975 2.348148,2.3481481 -0.0091,3.270782 -2.795062,2.795062 -0.0749,3.04938304 2.879012,2.87818796 -0.0099,6.355556 -4.944033,3.1728389 H 18.423414 L 15.209423,9.5640371 12.969093,4.8529261 2.3600396,3.4315271 -7.4720594,5.7080701 C -8.7988083,4.5006621 -10.009508,2.0628021 -10.695928,0.22823414 l 6.8576136,-7.53004104 -2.5884775,-2.357201 -8.2271601,9.03374504 0.29465,0.954732 c 0.204938,0.66749 2.106996,6.57448596 5.5497941,8.74567896 l 0.6172839,0.389301 10.7201646,-2.485597 8.0971194,1.081481 1.758025,3.6880659 3.85679,3.185185 v 9.650206 h -3.292181 v 3.292181 h 6.584362 V 15.530292 h 4.938272 v 11.522634 h -3.292181 v 3.292181 h 6.584362 V 15.530292 h 7.407407 v 9.053498 h -3.292181 v 3.292181 h 6.584363 V 15.530292 h 5.501234 l 0.260082,0.575309 v 10.947325 h -3.292181 v 3.292181 h 6.584363 V 15.530292 l 0,0 v -0.10535 l 7.184362,-4.459259 0.111111,-9.7045269 -2.797531,-2.844444 0.05185,-0.149794 z"
       inkscape:connector-curvature="0" />
    <polygon
       style="fill:#798a1d;fill-opacity:1"
       id="polygon7"
       points="49.875,39.621 52.728,36.769 56.701,36.779 60.098,40.175 63.802,40.266 67.299,36.769 71.272,36.779 74.068,39.574 77.074,36.566 73.038,32.531 65.543,32.513 62.085,35.971 61.902,35.966 58.467,32.531 50.972,32.513 46.869,36.615 "
       transform="matrix(0.82304527,0,0,0.82304527,-16.681936,-33.029379)" />
    <polygon
       style="fill:#798a1d;fill-opacity:1"
       id="polygon9"
       points="54.154,46.329 57.16,49.335 60.013,46.482 63.987,46.493 66.781,49.288 69.789,46.282 65.753,42.245 58.257,42.227 "
       transform="matrix(0.82304527,0,0,0.82304527,-16.681936,-33.029379)" />
  </g>
</svg>
