<?xml version="1.0" encoding="UTF-8" standalone="no"?>
<!-- Created with Inkscape (http://www.inkscape.org/) -->

<svg
   xmlns:a="http://ns.adobe.com/AdobeSVGViewerExtensions/3.0/"
   xmlns:dc="http://purl.org/dc/elements/1.1/"
   xmlns:cc="http://creativecommons.org/ns#"
   xmlns:rdf="http://www.w3.org/1999/02/22-rdf-syntax-ns#"
   xmlns:svg="http://www.w3.org/2000/svg"
   xmlns="http://www.w3.org/2000/svg"
   xmlns:xlink="http://www.w3.org/1999/xlink"
   xmlns:sodipodi="http://sodipodi.sourceforge.net/DTD/sodipodi-0.dtd"
   xmlns:inkscape="http://www.inkscape.org/namespaces/inkscape"
   width="400"
   height="400"
   id="svg2"
   version="1.1"
   inkscape:version="0.48.3.1 r9886"
   sodipodi:docname="cosmote.svg">
  <defs
     id="defs4">
	<linearGradient
   gradientUnits="userSpaceOnUse"
   xlink:href="#linearGradient5139"
   id="linearGradient5174"
   y2="333.14587"
   x2="558.40503"
   y1="293.14587"
   x1="510.04929" />
<linearGradient
   id="linearGradient5139">
  <stop
     offset="0"
     style="stop-color:#ff0000;stop-opacity:1"
     id="stop5141" />
  <stop
     offset="1"
     style="stop-color:#ff0000;stop-opacity:0"
     id="stop5143" />
</linearGradient>
<linearGradient
   gradientUnits="userSpaceOnUse"
   xlink:href="#linearGradient5139"
   id="linearGradient5145"
   y2="333.14587"
   x2="558.40503"
   y1="293.14587"
   x1="510.04929" />
<linearGradient
   id="linearGradient4959-0">
  <stop
     offset="0"
     style="stop-color:#ff0000;stop-opacity:1"
     id="stop4961-8" />
  <stop
     offset="0.49885303"
     style="stop-color:#f20000;stop-opacity:1"
     id="stop4969-8" />
  <stop
     offset="0.8398968"
     style="stop-color:#af0000;stop-opacity:1"
     id="stop4967-8" />
  <stop
     offset="1"
     style="stop-color:#980000;stop-opacity:1"
     id="stop4963-0" />
</linearGradient>
<radialGradient
   gradientUnits="userSpaceOnUse"
   xlink:href="#linearGradient4959-0"
   id="radialGradient4965-9"
   fy="515.57648"
   fx="366.42856"
   r="83.214287"
   cy="515.57648"
   cx="366.42856" />
<radialGradient
   gradientUnits="userSpaceOnUse"
   xlink:href="#linearGradient4959"
   id="radialGradient5119"
   fy="515.57648"
   fx="366.42856"
   r="83.214287"
   cy="515.57648"
   cx="366.42856" />
<radialGradient
   gradientUnits="userSpaceOnUse"
   xlink:href="#linearGradient4959"
   id="radialGradient5086"
   fy="515.57648"
   fx="366.42856"
   r="83.214287"
   cy="515.57648"
   cx="366.42856" />
<linearGradient
   id="linearGradient4959">
  <stop
     offset="0"
     style="stop-color:#ff0000;stop-opacity:1"
     id="stop4961" />
  <stop
     offset="0.49885303"
     style="stop-color:#f20000;stop-opacity:1"
     id="stop4969" />
  <stop
     offset="0.8398968"
     style="stop-color:#af0000;stop-opacity:1"
     id="stop4967" />
  <stop
     offset="1"
     style="stop-color:#980000;stop-opacity:1"
     id="stop4963" />
</linearGradient>
<radialGradient
   gradientUnits="userSpaceOnUse"
   xlink:href="#linearGradient4959"
   id="radialGradient4965"
   fy="515.57648"
   fx="366.42856"
   r="83.214287"
   cy="515.57648"
   cx="366.42856" />
<filter
   id="filter5021"
   color-interpolation-filters="sRGB"
   height="1.1682101"
   width="1.2015783"
   y="-0.084105074"
   x="-0.10078913">
  <feGaussianBlur
     stdDeviation="4.030074"
     id="feGaussianBlur5023" />
</filter>
<radialGradient
   gradientTransform="matrix(0.72724139,-1.638703,1.599582,0.70987985,-296.49688,514.47837)"
   gradientUnits="userSpaceOnUse"
   xlink:href="#linearGradient4910"
   id="radialGradient4936"
   fy="272.38541"
   fx="392.03427"
   r="34.160709"
   cy="272.38541"
   cx="392.03427" />
<linearGradient
   id="linearGradient4910">
  <stop
     offset="0"
     style="stop-color:#ffffff;stop-opacity:1"
     id="stop4912" />
  <stop
     offset="0.76446313"
     style="stop-color:#dd0000;stop-opacity:1"
     id="stop4918" />
  <stop
     offset="1"
     style="stop-color:#f60000;stop-opacity:1"
     id="stop4914" />
</linearGradient>
<radialGradient
   gradientTransform="matrix(0.72724139,-1.638703,1.599582,0.70987985,-326.78848,727.67902)"
   gradientUnits="userSpaceOnUse"
   xlink:href="#linearGradient4910"
   id="radialGradient4916"
   fy="272.38541"
   fx="392.03427"
   r="34.160709"
   cy="272.38541"
   cx="392.03427" />
<linearGradient
   gradientTransform="translate(-62.58047,-198.14746)"
   gradientUnits="userSpaceOnUse"
   xlink:href="#linearGradient4866"
   id="linearGradient4889"
   y2="284.91595"
   x2="404.56607"
   y1="256.94247"
   x1="357.53549" />
<linearGradient
   id="linearGradient4866">
  <stop
     offset="0"
     style="stop-color:#ffffff;stop-opacity:1"
     id="stop4868" />
  <stop
     offset="1"
     style="stop-color:#ff0000;stop-opacity:1"
     id="stop4870" />
</linearGradient>
<linearGradient
   gradientUnits="userSpaceOnUse"
   xlink:href="#linearGradient4866"
   id="linearGradient4872"
   y2="284.91595"
   x2="404.56607"
   y1="262.18753"
   x1="367.36996" />

			
		
			
			
			
			
			
			
			
			
			
			
			
			
			
			
			
			
			
			
			
			
			
			
			
			
			
			
			
			
			
			
			
			
			
			
			
			
			
			
			
			
			
			
			
			
			
			
			
			
			
			
			
			
			
			
			
			
			
			
			
			
			
			
			
			
			
			
			
			
			
			
			
			
			
			
			
			
			
			
			
			
			
			
			
			
			
			
			
			
			
			
			
			
			
			
			
			
			
			
			
			
			
			
			
			
			
			
			
			
			
			
			
			
			
			
			
			
			
			
			
			
			
			
			
			
			
			
			
			
			
			
			
			
			
			
			
			
			
			
			
			
			
			
			
			
			
			
			
			
			
			
			
			
			
			
			
			
			
			
			
			
			
			
			
			
			
			
			
			
			
			
			
			
			
			
			
			
			
			
			
			
			
			
			
			
			
		
			
			
			
			
			
			
			
			
			
			
			
			
			
			
			
			
			
			
			
			
			
			
			
			
			
			
			
			
			
			
			
			
			
			
			
			
			
			
			
			
			
			
			
			
			
			
			
			
			
			
			
			
			
			
			
			
			
			
			
			
			
			
			
			
			
			
			
			
			
			
			
			
			
			
			
			
			
			
		
			
		
			
			
			
			
			
			
			
			
			
			
			
			
			
			
			
			
			
			
			
			
			
			
			
			
			
			
			
			
			
			
			
			
			
			
			
			
			
			
			
			
			
			
			
			
			
			
			
			
			
			
			
		
				
				
				
				
				
				
				
				
			<radialGradient
   gradientUnits="userSpaceOnUse"
   xlink:href="#XMLID_6_"
   id="radialGradient3616"
   fy="96.407204"
   fx="296.8447"
   r="253.6021"
   cy="96.407204"
   cx="296.8447" />

		
		
		
		
		
		
			
		
			
		
			
		
		
	<radialGradient
   gradientUnits="userSpaceOnUse"
   id="XMLID_6_"
   fy="96.407204"
   fx="296.8447"
   r="253.6021"
   cy="96.407204"
   cx="296.8447">
			<stop
   offset="0"
   style="stop-color:#ffffff;stop-opacity:1"
   id="stop113" />

			<stop
   offset="0.1873"
   style="stop-color:#fbfbfb;stop-opacity:1"
   id="stop115" />

			<stop
   offset="0.3867"
   style="stop-color:#eeeeef;stop-opacity:1"
   id="stop117" />

			<stop
   offset="0.59179997"
   style="stop-color:#dad9da;stop-opacity:1"
   id="stop119" />

			<stop
   offset="0.79930001"
   style="stop-color:#bdbbbe;stop-opacity:1"
   id="stop121" />

			<stop
   offset="1"
   style="stop-color:#9a979b;stop-opacity:1"
   id="stop123" />

			<a:midPointStop
   offset="0"
   style="stop-color:#FFFFFF" />

			<a:midPointStop
   offset="0.6943"
   style="stop-color:#FFFFFF" />

			<a:midPointStop
   offset="1"
   style="stop-color:#9A979B" />

		</radialGradient>

	
		
		
			</defs>
  <sodipodi:namedview
     id="base"
     pagecolor="#ffffff"
     bordercolor="#666666"
     borderopacity="1.0"
     inkscape:pageopacity="0.0"
     inkscape:pageshadow="2"
     inkscape:zoom="0.7"
     inkscape:cx="298.6444"
     inkscape:cy="207.25459"
     inkscape:document-units="px"
     inkscape:current-layer="layer1"
     showgrid="false"
     inkscape:window-width="1440"
     inkscape:window-height="841"
     inkscape:window-x="0"
     inkscape:window-y="27"
     inkscape:window-maximized="1" />
  <metadata
     id="metadata7">
    <rdf:RDF>
      <cc:Work
         rdf:about="">
        <dc:format>image/svg+xml</dc:format>
        <dc:type
           rdf:resource="http://purl.org/dc/dcmitype/StillImage" />
        <dc:title></dc:title>
      </cc:Work>
    </rdf:RDF>
  </metadata>
  <g
     inkscape:label="Layer 1"
     inkscape:groupmode="layer"
     id="layer1"
     transform="translate(0,-652.3622)">
    <g
       id="g4580"
       transform="matrix(2.4783728,0,0,2.4783728,-4.6191404,742.81317)">
      <g
         id="g4520">
	<path
   id="path4522"
   d="m 32.16,11.587 c -0.327,-0.328 -0.765,-0.438 -1.093,-0.438 h -1.312 c -3.826,0 -7.434,0.765 -10.824,2.296 -3.39,1.421 -6.451,3.389 -8.966,5.905 -2.514,2.514 -4.482,5.467 -5.904,8.856 -1.531,3.389 -2.296,6.997 -2.187,10.825 -0.109,3.717 0.656,7.325 2.187,10.824 1.421,3.281 3.39,6.232 5.904,8.856 2.515,2.514 5.576,4.592 8.966,6.014 3.389,1.42 6.997,2.076 10.824,2.076 h 1.312 c 0.328,0 0.765,-0.108 1.093,-0.438 0.328,-0.327 0.438,-0.655 0.438,-0.983 v -1.968 c 0,-0.547 -0.109,-0.875 -0.438,-1.094 C 31.833,61.99 31.395,61.772 31.067,61.88 H 29.755 C 26.585,61.772 23.632,61.224 20.899,60.022 18.166,58.82 15.65,57.288 13.573,55.21 11.386,53.023 9.747,50.619 8.544,47.884 7.342,45.042 6.794,42.09 6.794,39.029 c 0,-3.171 0.546,-6.124 1.75,-8.857 1.204,-2.733 2.843,-5.249 5.029,-7.325 2.077,-2.077 4.483,-3.718 7.326,-4.92 2.733,-1.202 5.686,-1.75 8.856,-1.75 h 1.312 c 0.328,0 0.765,-0.109 1.093,-0.437 0.328,-0.328 0.438,-0.765 0.438,-1.094 v -1.968 c 0,-0.435 -0.11,-0.763 -0.438,-1.091 l 0,0 z"
   inkscape:connector-curvature="0"
   style="fill:#bed62f" />

	<path
   id="path4524"
   d="M 32.16,19.787 C 31.833,19.46 31.395,19.241 31.067,19.35 h -1.202 c -2.733,-0.109 -5.249,0.437 -7.653,1.531 -2.406,0.983 -4.482,2.406 -6.342,4.264 -1.858,1.75 -3.171,3.827 -4.155,6.233 -0.983,2.406 -1.531,4.919 -1.531,7.653 0,2.623 0.546,5.139 1.531,7.653 0.983,2.295 2.296,4.374 4.155,6.232 1.859,1.858 3.936,3.281 6.342,4.264 2.406,0.983 4.92,1.53 7.653,1.64 h 1.202 c 0.328,0 0.765,-0.109 1.093,-0.438 0.328,-0.327 0.438,-0.766 0.438,-1.202 v -1.86 c 0,-0.546 -0.109,-0.874 -0.438,-1.093 C 31.833,53.9 31.395,53.681 31.067,53.789 H 29.865 C 25.82,53.681 22.321,52.259 19.478,49.415 16.526,46.464 15.104,43.073 15.214,39.028 15.105,34.873 16.526,31.375 19.478,28.64 22.321,25.689 25.82,24.266 29.865,24.266 h 1.202 c 0.328,-0.109 0.765,-0.219 1.093,-0.438 0.328,-0.328 0.438,-0.656 0.438,-1.093 v -1.968 c 0,-0.324 -0.11,-0.652 -0.438,-0.98 l 0,0 z"
   inkscape:connector-curvature="0"
   style="fill:#bed62f" />

	<g
   id="g4526">
		<path
   id="path4528"
   d="m 81.362,30.064 c -1.421,1.203 -2.187,2.843 -2.077,4.812 v 13.558 c -0.109,0.327 0.109,0.656 0.437,0.983 0.328,0.328 0.656,0.438 1.093,0.438 h 1.859 c 0.328,0 0.765,-0.108 1.093,-0.438 0.219,-0.327 0.327,-0.656 0.327,-0.983 V 34.876 c 0,-0.656 0.219,-1.202 0.656,-1.531 0.438,-0.438 0.983,-0.656 1.531,-0.546 0.546,-0.109 1.093,0.109 1.42,0.438 0.328,0.328 0.546,0.875 0.656,1.421 v 13.776 c 0,0.327 0.108,0.656 0.438,0.983 0.327,0.328 0.655,0.438 1.094,0.438 h 1.858 c 0.327,0 0.765,-0.108 1.093,-0.438 0.219,-0.327 0.328,-0.656 0.439,-0.983 V 34.547 c 0,-0.546 0.219,-0.983 0.765,-1.312 0.327,-0.328 0.874,-0.546 1.421,-0.438 0.546,-0.109 0.983,0.109 1.421,0.546 0.327,0.328 0.546,0.875 0.656,1.421 v 13.667 c -0.109,0.327 0.108,0.656 0.437,0.983 0.328,0.328 0.656,0.438 1.094,0.438 h 1.859 c 0.327,0 0.765,-0.108 1.093,-0.438 0.219,-0.327 0.327,-0.656 0.327,-0.983 V 34.766 c 0,-1.859 -0.655,-3.499 -1.967,-4.702 -1.422,-1.421 -3.062,-2.077 -4.92,-1.968 -1.859,-0.109 -3.39,0.438 -4.592,1.64 -1.422,-1.202 -2.952,-1.75 -4.592,-1.64 -1.966,-0.108 -3.607,0.547 -4.919,1.968 l 0,0 z"
   stroke-miterlimit="10"
   inkscape:connector-curvature="0"
   style="fill:#8dc63f;stroke:#54a91f;stroke-width:0.2;stroke-miterlimit:10" />

		<path
   id="path4530"
   d="m 116.35,28.097 c -3.062,-0.109 -5.686,0.983 -7.763,3.171 -2.077,2.077 -3.171,4.701 -3.171,7.763 0,2.951 1.094,5.576 3.171,7.653 2.076,2.076 4.701,3.17 7.763,3.17 2.951,0 5.577,-1.094 7.872,-3.17 2.077,-2.077 3.062,-4.702 3.17,-7.653 -0.108,-3.062 -1.093,-5.686 -3.17,-7.763 -2.295,-2.187 -4.92,-3.28 -7.872,-3.171 l 0,0 z m -6.232,10.933 c -0.109,-1.75 0.546,-3.171 1.859,-4.374 1.202,-1.312 2.624,-1.968 4.374,-1.859 1.64,-0.109 3.17,0.546 4.483,1.859 1.202,1.202 1.749,2.624 1.859,4.374 -0.109,1.639 -0.656,3.17 -1.859,4.374 -1.313,1.202 -2.843,1.75 -4.483,1.75 -1.749,0 -3.17,-0.547 -4.374,-1.75 -1.313,-1.202 -1.969,-2.734 -1.859,-4.374 l 0,0 z"
   stroke-miterlimit="10"
   inkscape:connector-curvature="0"
   style="fill:#8dc63f;stroke:#54a91f;stroke-width:0.2;stroke-miterlimit:10" />

		<path
   id="path4532"
   d="m 32.598,30.831 v -1.859 c 0,-0.546 -0.109,-0.875 -0.438,-1.093 -0.327,-0.328 -0.765,-0.546 -1.093,-0.438 h -0.875 c -3.281,-0.109 -6.014,1.094 -8.309,3.39 -2.295,2.296 -3.389,5.03 -3.389,8.201 0,3.17 1.093,5.905 3.389,8.2 2.296,2.296 5.03,3.39 8.309,3.39 h 0.875 c 0.328,-0.109 0.765,-0.22 1.093,-0.439 0.328,-0.327 0.438,-0.655 0.438,-0.983 v -2.077 c 0,-0.437 -0.109,-0.765 -0.438,-0.983 -0.327,-0.327 -0.765,-0.546 -1.093,-0.437 h -0.875 c -1.859,-0.109 -3.499,-0.765 -4.812,-1.968 -1.312,-1.313 -1.968,-2.844 -1.858,-4.702 -0.109,-1.859 0.546,-3.39 1.858,-4.593 1.313,-1.421 2.952,-2.077 4.812,-2.077 h 0.875 c 0.328,0 0.765,-0.108 1.093,-0.327 0.328,-0.332 0.438,-0.768 0.438,-1.205 l 0,0 z"
   stroke-miterlimit="10"
   inkscape:connector-curvature="0"
   style="fill:#8dc63f;stroke:#54a91f;stroke-width:0.2;stroke-miterlimit:10" />

		<path
   id="path4534"
   d="m 37.081,31.268 c -2.077,2.077 -3.171,4.701 -3.171,7.763 0,2.951 1.093,5.576 3.171,7.653 2.077,2.076 4.701,3.17 7.763,3.17 2.952,0 5.576,-1.094 7.764,-3.17 2.077,-2.077 3.17,-4.702 3.17,-7.653 0,-3.062 -1.093,-5.686 -3.17,-7.763 -2.187,-2.187 -4.812,-3.281 -7.764,-3.171 -3.062,-0.109 -5.686,0.984 -7.763,3.171 l 0,0 z m 1.531,7.762 c -0.109,-1.75 0.546,-3.171 1.749,-4.374 1.202,-1.312 2.624,-1.968 4.482,-1.859 1.75,-0.109 3.171,0.546 4.374,1.859 1.202,1.202 1.859,2.624 1.859,4.374 0,1.639 -0.656,3.17 -1.859,4.374 -1.203,1.203 -2.624,1.75 -4.374,1.75 -1.858,0 -3.28,-0.547 -4.482,-1.75 -1.203,-1.202 -1.859,-2.734 -1.749,-4.374 l 0,0 z"
   stroke-miterlimit="10"
   inkscape:connector-curvature="0"
   style="fill:#8dc63f;stroke:#54a91f;stroke-width:0.2;stroke-miterlimit:10" />

		<path
   id="path4536"
   d="m 62.665,34.657 c -0.108,-0.546 0.109,-0.983 0.438,-1.312 0.327,-0.438 0.875,-0.656 1.421,-0.546 h 7.872 c 0.328,-0.109 0.656,-0.219 0.983,-0.546 0.328,-0.328 0.438,-0.656 0.438,-0.983 v -1.64 c 0,-0.546 -0.109,-0.875 -0.438,-1.093 -0.328,-0.328 -0.656,-0.546 -0.983,-0.438 h -7.873 c -1.859,-0.109 -3.389,0.546 -4.701,1.859 -1.312,1.312 -1.968,2.843 -1.859,4.701 -0.108,1.859 0.546,3.389 1.859,4.701 1.312,1.312 2.843,1.968 4.701,1.968 h 4.811 c 0.438,0 0.875,0.219 1.313,0.547 0.327,0.327 0.546,0.874 0.546,1.42 0,0.547 -0.219,0.984 -0.546,1.422 -0.438,0.327 -0.875,0.438 -1.313,0.438 h -8.856 c -0.437,0 -0.765,0.218 -1.093,0.546 -0.328,0.219 -0.546,0.546 -0.438,1.093 v 1.64 c -0.109,0.327 0.109,0.656 0.438,0.983 0.328,0.328 0.656,0.438 1.093,0.438 h 8.856 c 1.75,0 3.281,-0.656 4.702,-1.859 1.202,-1.312 1.858,-2.842 1.968,-4.702 -0.109,-1.859 -0.765,-3.498 -1.968,-4.701 -1.421,-1.312 -2.952,-1.968 -4.702,-1.968 h -4.811 c -0.546,0 -1.093,-0.219 -1.421,-0.546 -0.327,-0.328 -0.546,-0.875 -0.437,-1.422 l 0,0 z"
   stroke-miterlimit="10"
   inkscape:connector-curvature="0"
   style="fill:#8dc63f;stroke:#54a91f;stroke-width:0.2;stroke-miterlimit:10" />

		<path
   id="path4538"
   d="m 127.94,29.627 v 1.64 c -0.108,0.327 0.108,0.656 0.438,0.983 0.219,0.327 0.546,0.437 0.983,0.546 h 5.686 v 15.635 c -0.109,0.327 0.108,0.656 0.437,0.983 0.328,0.328 0.656,0.438 1.094,0.438 h 1.64 c 0.327,0 0.765,-0.108 1.093,-0.438 0.328,-0.327 0.438,-0.656 0.438,-0.983 V 32.798 h 5.686 c 0.327,-0.109 0.765,-0.219 1.094,-0.546 0.327,-0.328 0.437,-0.656 0.437,-0.983 v -1.64 c 0,-0.546 -0.108,-0.875 -0.437,-1.093 -0.328,-0.328 -0.766,-0.546 -1.094,-0.438 h -16.072 c -0.438,-0.109 -0.765,0.109 -0.983,0.438 -0.331,0.216 -0.549,0.545 -0.44,1.091 l 0,0 z"
   stroke-miterlimit="10"
   inkscape:connector-curvature="0"
   style="fill:#8dc63f;stroke:#54a91f;stroke-width:0.2;stroke-miterlimit:10" />

		<path
   id="path4540"
   d="m 151.01,31.268 c -2.187,2.077 -3.281,4.701 -3.17,7.763 -0.109,2.951 0.983,5.576 3.17,7.653 2.188,2.076 4.811,3.17 7.872,3.17 h 2.296 c 0.327,0 0.765,-0.108 1.093,-0.438 0.219,-0.327 0.327,-0.656 0.327,-0.983 v -1.64 c 0,-0.546 -0.108,-0.874 -0.327,-1.093 -0.327,-0.328 -0.765,-0.546 -1.093,-0.546 h -2.296 c -1.312,0 -2.514,-0.328 -3.608,-0.983 -0.983,-0.766 -1.749,-1.75 -2.295,-2.735 h 5.576 c 0.437,0 0.765,-0.108 1.094,-0.437 0.327,-0.328 0.437,-0.765 0.437,-1.202 v -1.64 c 0,-0.438 -0.108,-0.765 -0.437,-0.983 -0.328,-0.328 -0.657,-0.546 -1.094,-0.438 h -5.576 c 0.437,-1.202 1.201,-2.187 2.295,-2.843 0.983,-0.765 2.187,-1.202 3.608,-1.093 h 2.296 c 0.327,-0.109 0.765,-0.219 1.093,-0.546 0.219,-0.328 0.327,-0.656 0.327,-0.984 v -1.749 c 0,-0.328 -0.108,-0.656 -0.327,-0.983 -0.327,-0.328 -0.765,-0.546 -1.093,-0.438 h -2.296 c -3.062,-0.112 -5.684,0.981 -7.872,3.168 l 0,0 z"
   stroke-miterlimit="10"
   inkscape:connector-curvature="0"
   style="fill:#8dc63f;stroke:#54a91f;stroke-width:0.2;stroke-miterlimit:10" />

	</g>

</g>
      <g
         id="g4542">
	<path
   id="path4544"
   d="m 41.549,73.846 c -1.982,0 -3.209,-1.151 -3.209,-3.096 v -2.284 c 0,-1.868 1.284,-3.095 3.209,-3.095 1.906,0 3.19,1.17 3.19,3.095 v 2.247 c 0,1.981 -1.208,3.133 -3.19,3.133 z m 2.039,-5.361 c 0,-1.208 -0.736,-2.096 -2.039,-2.096 -1.321,0 -2.057,0.868 -2.057,2.076 v 2.266 c 0,1.265 0.736,2.114 2.057,2.114 1.359,0 2.02,-0.85 2.039,-2.114 v -2.246 z"
   stroke-miterlimit="10"
   inkscape:connector-curvature="0"
   style="stroke:#000000;stroke-width:0.25;stroke-miterlimit:10" />

	<path
   id="path4546"
   d="m 57.343,73.732 h -0.755 c -0.151,0 -0.208,-0.057 -0.208,-0.208 l -0.095,-1.83 c -0.057,-1.095 -0.509,-2.039 -1.982,-2.039 -1.208,0 -2.02,0.906 -2.02,1.963 v 1.963 c 0,0.113 -0.038,0.151 -0.151,0.151 h -0.85 c -0.094,0 -0.17,-0.038 -0.17,-0.132 v -7.966 c 0,-0.113 0.057,-0.17 0.151,-0.17 h 0.868 c 0.113,0 0.132,0.057 0.132,0.151 v 3.436 c 0,0.227 0.113,0.188 0.208,0.075 l 3.435,-3.529 C 56,65.521 56.057,65.502 56.17,65.502 h 1.038 c 0.151,0 0.189,0.113 0.113,0.208 l -2.737,2.85 c -0.075,0.075 -0.057,0.17 0.057,0.17 0.132,0 0.264,0 0.377,0.019 1.624,0.133 2.359,1.321 2.435,2.945 l 0.094,1.793 c 0.004,0.17 -0.053,0.245 -0.204,0.245 z"
   stroke-miterlimit="10"
   inkscape:connector-curvature="0"
   style="stroke:#000000;stroke-width:0.25;stroke-miterlimit:10" />

	<path
   id="path4548"
   d="m 62.531,73.846 c -1.982,0 -3.209,-1.151 -3.209,-3.096 v -2.284 c 0,-1.868 1.284,-3.095 3.209,-3.095 1.906,0 3.19,1.17 3.19,3.095 v 2.247 c 0,1.981 -1.208,3.133 -3.19,3.133 z m 2.038,-5.361 c 0,-1.208 -0.736,-2.096 -2.039,-2.096 -1.321,0 -2.057,0.868 -2.057,2.076 v 2.266 c 0,1.265 0.736,2.114 2.057,2.114 1.359,0 2.02,-0.85 2.039,-2.114 v -2.246 z m -1.868,-4.039 c -0.076,0.075 -0.189,0.15 -0.34,0.075 L 62.078,64.333 C 61.946,64.238 61.965,64.144 62.021,64.05 l 1.359,-2.379 c 0.075,-0.132 0.226,-0.207 0.358,-0.113 l 0.623,0.396 c 0.227,0.133 0.17,0.265 0.094,0.358 l -1.754,2.134 z"
   stroke-miterlimit="10"
   inkscape:connector-curvature="0"
   style="stroke:#000000;stroke-width:0.25;stroke-miterlimit:10" />

	<path
   id="path4550"
   d="m 74.759,65.654 v 0.66 c 0,0.113 -0.038,0.151 -0.151,0.151 h -0.887 c -0.208,0 -0.396,0.037 -0.396,0.113 0,0.094 0.113,0.17 0.208,0.264 0.415,0.472 0.585,1.038 0.585,1.699 v 2.227 c 0,1.907 -1.246,3.059 -3.19,3.059 -1.982,0 -3.19,-1.171 -3.19,-3.059 v -2.189 c 0,-1.793 1.17,-3.076 3.039,-3.076 h 3.832 c 0.093,0 0.15,0.057 0.15,0.151 z m -1.793,2.925 c 0,-1.17 -0.85,-2.076 -2.039,-2.076 -1.208,0 -2.057,0.906 -2.057,2.058 v 2.208 c 0,1.208 0.849,2.096 2.057,2.096 1.208,0 2.039,-0.868 2.039,-2.114 v -2.172 z"
   stroke-miterlimit="10"
   inkscape:connector-curvature="0"
   style="stroke:#000000;stroke-width:0.25;stroke-miterlimit:10" />

	<path
   id="path4552"
   d="m 77.36,77.13 h -0.83 c -0.113,0 -0.17,-0.038 -0.188,-0.132 V 65.654 c 0,-0.076 0.057,-0.133 0.17,-0.133 h 0.831 c 0.113,0 0.151,0.038 0.151,0.133 v 5.134 c 0,1.095 0.868,2.058 2.057,2.058 1.189,0 2.039,-0.906 2.039,-2.039 v -5.152 c 0,-0.076 0.038,-0.133 0.151,-0.133 h 0.85 c 0.094,0 0.151,0.038 0.151,0.133 v 7.946 c 0,0.094 -0.038,0.132 -0.151,0.132 h -0.774 c -0.132,0 -0.17,-0.038 -0.17,-0.132 v -0.528 c 0,-0.076 -0.038,-0.133 -0.075,-0.133 -0.076,0 -0.227,0.151 -0.34,0.245 -0.453,0.378 -1,0.643 -1.793,0.643 -0.755,0 -1.283,-0.246 -1.661,-0.643 -0.038,-0.037 -0.076,-0.037 -0.113,-0.037 -0.113,0 -0.151,0.17 -0.151,0.245 v 3.586 c -0.003,0.113 -0.04,0.151 -0.154,0.151 z"
   stroke-miterlimit="10"
   inkscape:connector-curvature="0"
   style="stroke:#000000;stroke-width:0.25;stroke-miterlimit:10" />

	<path
   id="path4554"
   d="m 88.249,73.846 c -1.982,0 -3.209,-1.151 -3.209,-3.096 v -2.284 c 0,-1.868 1.283,-3.095 3.209,-3.095 1.906,0 3.189,1.17 3.189,3.095 v 2.247 c 0,1.981 -1.208,3.133 -3.189,3.133 z m 2.038,-5.361 c 0,-1.208 -0.736,-2.096 -2.038,-2.096 -1.322,0 -2.058,0.868 -2.058,2.076 v 2.266 c 0,1.265 0.735,2.114 2.058,2.114 1.358,0 2.02,-0.85 2.038,-2.114 v -2.246 z"
   stroke-miterlimit="10"
   inkscape:connector-curvature="0"
   style="stroke:#000000;stroke-width:0.25;stroke-miterlimit:10" />

	<path
   id="path4556"
   d="m 95.871,73.846 c -1.189,0 -2.284,-0.604 -2.718,-1.68 -0.057,-0.076 -0.038,-0.17 0.057,-0.208 l 0.642,-0.302 c 0.113,-0.057 0.188,-0.038 0.227,0.075 0.358,0.661 0.943,1.171 1.793,1.171 0.944,0 1.756,-0.473 1.756,-1.303 0,-0.831 -0.736,-1.151 -1.529,-1.453 -0.415,-0.151 -0.83,-0.303 -1.246,-0.491 -0.849,-0.377 -1.528,-0.963 -1.528,-2.02 0,-1.51 1.358,-2.246 2.643,-2.246 0.981,0 1.831,0.227 2.246,0.415 0.17,0.076 0.264,0.188 0.207,0.34 l -0.207,0.528 c -0.057,0.151 -0.189,0.17 -0.302,0.113 -0.586,-0.264 -1.228,-0.415 -1.869,-0.415 -0.717,0 -1.623,0.321 -1.623,1.189 0,0.905 1,1.188 1.755,1.453 1.265,0.472 2.586,0.963 2.586,2.567 -0.002,1.21 -1.059,2.267 -2.89,2.267 z"
   stroke-miterlimit="10"
   inkscape:connector-curvature="0"
   style="stroke:#000000;stroke-width:0.25;stroke-miterlimit:10" />

	<path
   id="path4558"
   d="m 105.852,77.13 h -0.83 c -0.113,0 -0.17,-0.038 -0.189,-0.132 V 65.654 c 0,-0.076 0.057,-0.133 0.17,-0.133 h 0.831 c 0.113,0 0.15,0.038 0.15,0.133 v 5.134 c 0,1.095 0.869,2.058 2.058,2.058 1.189,0 2.039,-0.906 2.039,-2.039 v -5.152 c 0,-0.076 0.037,-0.133 0.15,-0.133 h 0.85 c 0.095,0 0.151,0.038 0.151,0.133 v 7.946 c 0,0.094 -0.038,0.132 -0.151,0.132 h -0.773 c -0.133,0 -0.17,-0.038 -0.17,-0.132 v -0.528 c 0,-0.076 -0.038,-0.133 -0.076,-0.133 -0.075,0 -0.227,0.151 -0.34,0.245 -0.452,0.378 -1,0.643 -1.793,0.643 -0.755,0 -1.283,-0.246 -1.661,-0.643 -0.037,-0.037 -0.075,-0.037 -0.113,-0.037 -0.113,0 -0.15,0.17 -0.15,0.245 v 3.586 c -0.002,0.113 -0.04,0.151 -0.153,0.151 z"
   stroke-miterlimit="10"
   inkscape:connector-curvature="0"
   style="stroke:#000000;stroke-width:0.25;stroke-miterlimit:10" />

	<path
   id="path4560"
   d="m 119.777,73.732 h -0.868 c -0.113,0 -0.132,-0.057 -0.132,-0.151 v -0.396 c 0,-0.169 -0.095,-0.226 -0.245,-0.094 -0.416,0.453 -1.095,0.698 -1.85,0.698 -2.021,0 -3.152,-1.265 -3.152,-3.001 v -2.379 c 0,-1.755 1.283,-3.02 3.096,-3.02 0.925,0 1.585,0.358 1.963,0.755 0.113,0.113 0.245,0.095 0.245,-0.038 v -0.452 c 0,-0.133 0.038,-0.17 0.151,-0.17 h 0.792 c 0.095,0 0.151,0.037 0.151,0.15 v 7.928 c 0.001,0.114 -0.056,0.17 -0.151,0.17 z m -1,-5.323 c 0,-1.151 -0.85,-2.02 -2.038,-2.02 -1.208,0 -2.058,0.868 -2.058,2.039 v 2.359 c 0,1.113 0.812,2.095 2.058,2.095 1.17,0 2.02,-0.943 2.02,-2.076 l 0.018,-2.397 z"
   stroke-miterlimit="10"
   inkscape:connector-curvature="0"
   style="stroke:#000000;stroke-width:0.25;stroke-miterlimit:10" />

	<path
   id="path4562"
   d="m 124.475,73.846 c -1.189,0 -2.284,-0.604 -2.718,-1.68 -0.057,-0.076 -0.038,-0.17 0.057,-0.208 l 0.642,-0.302 c 0.113,-0.057 0.188,-0.038 0.227,0.075 0.358,0.661 0.943,1.171 1.793,1.171 0.944,0 1.756,-0.473 1.756,-1.303 0,-0.831 -0.736,-1.151 -1.529,-1.453 -0.415,-0.151 -0.83,-0.303 -1.246,-0.491 -0.849,-0.377 -1.528,-0.963 -1.528,-2.02 0,-1.51 1.358,-2.246 2.643,-2.246 0.981,0 1.831,0.227 2.246,0.415 0.17,0.076 0.264,0.188 0.207,0.34 l -0.207,0.528 c -0.057,0.151 -0.189,0.17 -0.302,0.113 -0.586,-0.264 -1.228,-0.415 -1.869,-0.415 -0.717,0 -1.623,0.321 -1.623,1.189 0,0.905 1,1.188 1.755,1.453 1.265,0.472 2.586,0.963 2.586,2.567 -0.003,1.21 -1.059,2.267 -2.89,2.267 z"
   stroke-miterlimit="10"
   inkscape:connector-curvature="0"
   style="stroke:#000000;stroke-width:0.25;stroke-miterlimit:10" />

	<path
   id="path4564"
   d="m 130.021,75.601 c -0.037,0.151 -0.113,0.208 -0.245,0.208 h -0.415 c -0.151,0 -0.189,-0.132 -0.17,-0.283 l 0.188,-3.133 c 0,-0.151 0.095,-0.246 0.245,-0.246 h 1.02 c 0.208,0 0.283,0.095 0.208,0.321 l -0.831,3.133 z"
   stroke-miterlimit="10"
   inkscape:connector-curvature="0"
   style="stroke:#000000;stroke-width:0.25;stroke-miterlimit:10" />

	<path
   id="path4566"
   d="m 142.815,66.673 c 0.075,0.133 0.094,0.208 0,0.283 l -0.585,0.415 c -0.151,0.113 -0.265,0.057 -0.359,-0.075 -0.434,-0.604 -1.151,-0.906 -1.812,-0.906 -0.736,0 -1.718,0.396 -1.718,1.416 0,0.868 0.831,1.113 1.416,1.113 h 1.208 c 0.113,0 0.15,0.057 0.15,0.151 v 0.66 c 0,0.113 -0.037,0.151 -0.15,0.151 h -1.303 c -0.66,0 -1.396,0.453 -1.396,1.321 0,1.246 1.075,1.643 1.812,1.643 0.755,0 1.511,-0.435 1.831,-0.888 0.132,-0.15 0.245,-0.227 0.378,-0.132 l 0.51,0.415 c 0.169,0.132 0.188,0.208 0.112,0.321 -0.642,0.887 -1.68,1.283 -2.868,1.283 -1.774,0 -2.964,-0.925 -2.964,-2.604 0,-0.491 0.283,-1.341 1.095,-1.699 0.095,-0.057 0.113,-0.15 0,-0.188 -0.773,-0.208 -1.038,-0.981 -1.038,-1.416 0,-1.566 1.283,-2.548 2.944,-2.548 1.076,0.001 2.096,0.34 2.737,1.284 z"
   stroke-miterlimit="10"
   inkscape:connector-curvature="0"
   style="stroke:#000000;stroke-width:0.25;stroke-miterlimit:10" />

	<path
   id="path4568"
   d="m 151.4,65.654 v 0.66 c 0,0.113 -0.038,0.151 -0.15,0.151 h -0.888 c -0.207,0 -0.396,0.037 -0.396,0.113 0,0.094 0.113,0.17 0.208,0.264 0.415,0.472 0.585,1.038 0.585,1.699 v 2.227 c 0,1.907 -1.246,3.059 -3.189,3.059 -1.982,0 -3.19,-1.171 -3.19,-3.059 v -2.189 c 0,-1.793 1.17,-3.076 3.039,-3.076 h 3.832 c 0.093,0 0.149,0.057 0.149,0.151 z m -1.793,2.925 c 0,-1.17 -0.85,-2.076 -2.038,-2.076 -1.208,0 -2.058,0.906 -2.058,2.058 v 2.208 c 0,1.208 0.85,2.096 2.058,2.096 1.208,0 2.038,-0.868 2.038,-2.114 v -2.172 z"
   stroke-miterlimit="10"
   inkscape:connector-curvature="0"
   style="stroke:#000000;stroke-width:0.25;stroke-miterlimit:10" />

	<path
   id="path4570"
   d="m 156.173,73.902 c -2.001,0 -3.209,-1.227 -3.209,-3.077 v -5.171 c 0,-0.113 0.057,-0.17 0.17,-0.17 h 0.83 c 0.113,0 0.151,0.057 0.151,0.17 v 5.171 c 0,1.189 0.812,2.077 2.058,2.077 1.283,0 2.02,-0.869 2.02,-2.096 0,-0.566 -0.019,-4.567 -0.019,-5.152 0,-0.113 0.057,-0.17 0.17,-0.17 h 0.868 c 0.094,0 0.15,0.057 0.15,0.17 v 5.171 c 0,1.851 -1.226,3.077 -3.189,3.077 z m 0.056,-9.456 c -0.075,0.075 -0.188,0.15 -0.34,0.075 l -0.283,-0.188 c -0.132,-0.095 -0.113,-0.189 -0.057,-0.283 l 1.359,-2.379 c 0.075,-0.132 0.227,-0.207 0.358,-0.113 l 0.623,0.396 c 0.227,0.133 0.17,0.265 0.094,0.358 l -1.754,2.134 z"
   stroke-miterlimit="10"
   inkscape:connector-curvature="0"
   style="stroke:#000000;stroke-width:0.25;stroke-miterlimit:10" />

	<path
   id="path4572"
   d="m 163.135,73.034 c 0,0.472 -0.359,0.85 -0.85,0.85 -0.435,0 -0.812,-0.396 -0.812,-0.85 0,-0.454 0.377,-0.812 0.812,-0.812 0.49,0.001 0.85,0.341 0.85,0.812 z"
   stroke-miterlimit="10"
   inkscape:connector-curvature="0"
   style="stroke:#000000;stroke-width:0.25;stroke-miterlimit:10" />

</g>
    </g>
  </g>
</svg>
