<?xml version="1.0" encoding="UTF-8" standalone="no"?>
<!-- Created with Inkscape (http://www.inkscape.org/) -->

<svg
   xmlns:a="http://ns.adobe.com/AdobeSVGViewerExtensions/3.0/"
   xmlns:dc="http://purl.org/dc/elements/1.1/"
   xmlns:cc="http://creativecommons.org/ns#"
   xmlns:rdf="http://www.w3.org/1999/02/22-rdf-syntax-ns#"
   xmlns:svg="http://www.w3.org/2000/svg"
   xmlns="http://www.w3.org/2000/svg"
   xmlns:xlink="http://www.w3.org/1999/xlink"
   xmlns:sodipodi="http://sodipodi.sourceforge.net/DTD/sodipodi-0.dtd"
   xmlns:inkscape="http://www.inkscape.org/namespaces/inkscape"
   width="400"
   height="400"
   id="svg2"
   version="1.1"
   inkscape:version="0.48.3.1 r9886"
   sodipodi:docname="dell.svg">
  <defs
     id="defs4">
    <linearGradient
       gradientUnits="userSpaceOnUse"
       xlink:href="#linearGradient5139"
       id="linearGradient5174"
       y2="333.14587"
       x2="558.40503"
       y1="293.14587"
       x1="510.04929" />
    <linearGradient
       id="linearGradient5139">
      <stop
         offset="0"
         style="stop-color:#ff0000;stop-opacity:1"
         id="stop5141" />
      <stop
         offset="1"
         style="stop-color:#ff0000;stop-opacity:0"
         id="stop5143" />
    </linearGradient>
    <linearGradient
       gradientUnits="userSpaceOnUse"
       xlink:href="#linearGradient5139"
       id="linearGradient5145"
       y2="333.14587"
       x2="558.40503"
       y1="293.14587"
       x1="510.04929" />
    <linearGradient
       id="linearGradient4959-0">
      <stop
         offset="0"
         style="stop-color:#ff0000;stop-opacity:1"
         id="stop4961-8" />
      <stop
         offset="0.49885303"
         style="stop-color:#f20000;stop-opacity:1"
         id="stop4969-8" />
      <stop
         offset="0.8398968"
         style="stop-color:#af0000;stop-opacity:1"
         id="stop4967-8" />
      <stop
         offset="1"
         style="stop-color:#980000;stop-opacity:1"
         id="stop4963-0" />
    </linearGradient>
    <radialGradient
       gradientUnits="userSpaceOnUse"
       xlink:href="#linearGradient4959-0"
       id="radialGradient4965-9"
       fy="515.57648"
       fx="366.42856"
       r="83.214287"
       cy="515.57648"
       cx="366.42856" />
    <radialGradient
       gradientUnits="userSpaceOnUse"
       xlink:href="#linearGradient4959"
       id="radialGradient5119"
       fy="515.57648"
       fx="366.42856"
       r="83.214287"
       cy="515.57648"
       cx="366.42856" />
    <radialGradient
       gradientUnits="userSpaceOnUse"
       xlink:href="#linearGradient4959"
       id="radialGradient5086"
       fy="515.57648"
       fx="366.42856"
       r="83.214287"
       cy="515.57648"
       cx="366.42856" />
    <linearGradient
       id="linearGradient4959">
      <stop
         offset="0"
         style="stop-color:#ff0000;stop-opacity:1"
         id="stop4961" />
      <stop
         offset="0.49885303"
         style="stop-color:#f20000;stop-opacity:1"
         id="stop4969" />
      <stop
         offset="0.8398968"
         style="stop-color:#af0000;stop-opacity:1"
         id="stop4967" />
      <stop
         offset="1"
         style="stop-color:#980000;stop-opacity:1"
         id="stop4963" />
    </linearGradient>
    <radialGradient
       gradientUnits="userSpaceOnUse"
       xlink:href="#linearGradient4959"
       id="radialGradient4965"
       fy="515.57648"
       fx="366.42856"
       r="83.214287"
       cy="515.57648"
       cx="366.42856" />
    <filter
       id="filter5021"
       color-interpolation-filters="sRGB"
       height="1.1682101"
       width="1.2015783"
       y="-0.084105074"
       x="-0.10078913">
      <feGaussianBlur
         stdDeviation="4.030074"
         id="feGaussianBlur5023" />
    </filter>
    <radialGradient
       gradientTransform="matrix(0.72724139,-1.638703,1.599582,0.70987985,-296.49688,514.47837)"
       gradientUnits="userSpaceOnUse"
       xlink:href="#linearGradient4910"
       id="radialGradient4936"
       fy="272.38541"
       fx="392.03427"
       r="34.160709"
       cy="272.38541"
       cx="392.03427" />
    <linearGradient
       id="linearGradient4910">
      <stop
         offset="0"
         style="stop-color:#ffffff;stop-opacity:1"
         id="stop4912" />
      <stop
         offset="0.76446313"
         style="stop-color:#dd0000;stop-opacity:1"
         id="stop4918" />
      <stop
         offset="1"
         style="stop-color:#f60000;stop-opacity:1"
         id="stop4914" />
    </linearGradient>
    <radialGradient
       gradientTransform="matrix(0.72724139,-1.638703,1.599582,0.70987985,-326.78848,727.67902)"
       gradientUnits="userSpaceOnUse"
       xlink:href="#linearGradient4910"
       id="radialGradient4916"
       fy="272.38541"
       fx="392.03427"
       r="34.160709"
       cy="272.38541"
       cx="392.03427" />
    <linearGradient
       gradientTransform="translate(-62.58047,-198.14746)"
       gradientUnits="userSpaceOnUse"
       xlink:href="#linearGradient4866"
       id="linearGradient4889"
       y2="284.91595"
       x2="404.56607"
       y1="256.94247"
       x1="357.53549" />
    <linearGradient
       id="linearGradient4866">
      <stop
         offset="0"
         style="stop-color:#ffffff;stop-opacity:1"
         id="stop4868" />
      <stop
         offset="1"
         style="stop-color:#ff0000;stop-opacity:1"
         id="stop4870" />
    </linearGradient>
    <linearGradient
       gradientUnits="userSpaceOnUse"
       xlink:href="#linearGradient4866"
       id="linearGradient4872"
       y2="284.91595"
       x2="404.56607"
       y1="262.18753"
       x1="367.36996" />
    <radialGradient
       gradientUnits="userSpaceOnUse"
       xlink:href="#XMLID_6_"
       id="radialGradient3616"
       fy="96.407204"
       fx="296.8447"
       r="253.6021"
       cy="96.407204"
       cx="296.8447" />
    <radialGradient
       gradientUnits="userSpaceOnUse"
       id="XMLID_6_"
       fy="96.407204"
       fx="296.8447"
       r="253.6021"
       cy="96.407204"
       cx="296.8447">
      <stop
         offset="0"
         style="stop-color:#ffffff;stop-opacity:1"
         id="stop113" />
      <stop
         offset="0.1873"
         style="stop-color:#fbfbfb;stop-opacity:1"
         id="stop115" />
      <stop
         offset="0.3867"
         style="stop-color:#eeeeef;stop-opacity:1"
         id="stop117" />
      <stop
         offset="0.59179997"
         style="stop-color:#dad9da;stop-opacity:1"
         id="stop119" />
      <stop
         offset="0.79930001"
         style="stop-color:#bdbbbe;stop-opacity:1"
         id="stop121" />
      <stop
         offset="1"
         style="stop-color:#9a979b;stop-opacity:1"
         id="stop123" />
      <a:midPointStop
         offset="0"
         style="stop-color:#FFFFFF" />
      <a:midPointStop
         offset="0.6943"
         style="stop-color:#FFFFFF" />
      <a:midPointStop
         offset="1"
         style="stop-color:#9A979B" />
    </radialGradient>
    <g
       id="s">
      <g
         id="c">
        <path
           transform="translate(0,-1)rotate(18)"
           d="M0,0v1h0.5z"
           id="t" />
        <use
           id="use4736"
           transform="scale(-1,1)"
           xlink:href="#t" />
      </g>
      <g
         id="a">
        <use
           id="use4739"
           transform="rotate(72)"
           xlink:href="#c" />
        <use
           id="use4741"
           transform="rotate(144)"
           xlink:href="#c" />
      </g>
      <use
         id="use4743"
         transform="scale(-1,1)"
         xlink:href="#a" />
    </g>
  </defs>
  <sodipodi:namedview
     id="base"
     pagecolor="#ffffff"
     bordercolor="#666666"
     borderopacity="1.0"
     inkscape:pageopacity="0.0"
     inkscape:pageshadow="2"
     inkscape:zoom="0.7"
     inkscape:cx="301.50154"
     inkscape:cy="207.25459"
     inkscape:document-units="px"
     inkscape:current-layer="layer1"
     showgrid="false"
     inkscape:window-width="1440"
     inkscape:window-height="841"
     inkscape:window-x="0"
     inkscape:window-y="27"
     inkscape:window-maximized="1" />
  <metadata
     id="metadata7">
    <rdf:RDF>
      <cc:Work
         rdf:about="">
        <dc:format>image/svg+xml</dc:format>
        <dc:type
           rdf:resource="http://purl.org/dc/dcmitype/StillImage" />
        <dc:title />
      </cc:Work>
    </rdf:RDF>
  </metadata>
  <g
     inkscape:label="Layer 1"
     inkscape:groupmode="layer"
     id="layer1"
     transform="translate(0,-652.3622)">
    <g
       id="g4854"
       transform="matrix(0.35427307,0,0,0.35427307,111.97359,764.96126)">
      <path
         id="path4856"
         d="m 241.281,15.478 c 4.793,0 9.586,0 14.379,0 69.941,3.944 119.808,30.502 156.78,67.722 36.972,37.22 64.301,86.31 67.953,156.548 0,4.639 0,9.276 0,13.915 -3.551,71.361 -31.363,118.459 -67.953,156.78 -38.436,36.401 -85.688,63.979 -157.012,67.489 -4.716,0 -9.432,0 -14.147,0 C 171.349,473.979 121.472,447.433 84.501,410.211 47.53,372.99 20.2,323.901 16.548,253.663 c 0,-4.639 0,-9.276 0,-13.915 0.181,-0.051 0.27,-0.194 0.232,-0.464 3.497,-69.97 30.976,-119.57 67.722,-156.316 36.915,-36.917 87.299,-63.665 156.779,-67.49 z m -45.457,33.165 c -13.78,3.69 -26.138,8.376 -37.339,13.915 -34.094,16.859 -62.21,40.979 -81.869,71.896 -19.189,30.178 -35.802,68.999 -33.397,119.904 1.517,32.093 8.84,59.089 20.409,82.101 22.844,45.437 57.625,78.916 105.757,99.264 23.802,10.061 53.295,17.12 86.507,15.538 31.858,-1.517 59.462,-8.678 82.333,-20.177 44.824,-22.538 80.15,-57.312 99.728,-105.293 9.902,-24.271 17.389,-52.309 15.77,-86.276 C 450.659,175.172 424.486,131.544 389.945,98.274 372.854,81.812 352.274,67.809 328.022,57.688 304.491,47.868 273.858,40.587 241.05,42.149 c -16.127,0.768 -31.342,2.776 -45.226,6.494 z"
         clip-rule="evenodd"
         inkscape:connector-curvature="0"
         style="fill:#0083ca;fill-rule:evenodd" />
      <path
         id="path4858"
         d="m 227.134,186.637 c 7.348,4.866 14.865,9.565 21.801,14.843 -15.671,9.84 -31.034,19.989 -46.616,29.918 2.366,1.809 5.056,3.293 7.421,5.102 15.712,-9.954 31.429,-19.902 47.081,-29.918 7.019,4.345 13.931,8.798 20.41,13.684 -15.683,9.906 -30.842,20.336 -46.385,30.382 2.303,1.872 5.126,3.223 7.653,4.87 16.065,-9.832 31.73,-20.066 47.544,-30.149 0,-10.978 0,-21.956 0,-32.934 11.596,0 23.192,0 34.789,0 0,21.878 0,43.757 0,65.635 9.817,0.541 20.641,0.077 30.846,0.231 0,10.282 0,20.564 0,30.846 -21.879,0 -43.757,0 -65.635,0 0,-10.437 0,-20.873 0,-31.31 -19.285,11.716 -39.046,24.965 -58.445,37.34 -20.201,-13.118 -39.67,-26.97 -59.836,-40.122 -5.841,18.516 -19.716,32.447 -42.674,34.092 -14.319,1.025 -30.588,-0.764 -47.081,0 0,-32.236 0,-64.475 0,-96.712 20.619,1.366 43.258,-2.757 59.604,2.319 14.453,4.489 24.7,16.021 29.454,30.382 20.182,-12.675 40.039,-25.672 60.069,-38.499 z m -115.962,36.876 c 0,11.596 0,23.192 0,34.788 8.287,0.041 14.589,0.522 19.481,-3.246 7.277,-5.606 8.743,-19.5 2.319,-26.904 -4.287,-4.94 -11.525,-5.977 -21.569,-5.334 -0.269,0.039 -0.251,0.367 -0.231,0.696 z"
         clip-rule="evenodd"
         inkscape:connector-curvature="0"
         style="fill:#0083ca;fill-rule:evenodd" />
      <path
         id="path4860"
         d="m 360.722,192.435 c 11.596,0 23.191,0 34.788,0 0,21.956 0,43.911 0,65.866 10.204,0 20.409,0 30.614,0 0,10.282 0,20.564 0,30.846 -21.879,0 -43.757,0 -65.635,0 0,-32.006 0,-64.01 0,-96.016 -0.019,-0.329 -0.038,-0.657 0.233,-0.696 z"
         clip-rule="evenodd"
         inkscape:connector-curvature="0"
         style="fill:#0083ca;fill-rule:evenodd" />
    </g>
  </g>
</svg>
