<?xml version="1.0" encoding="UTF-8" standalone="no"?>
<!-- Created with Inkscape (http://www.inkscape.org/) -->

<svg
   xmlns:a="http://ns.adobe.com/AdobeSVGViewerExtensions/3.0/"
   xmlns:dc="http://purl.org/dc/elements/1.1/"
   xmlns:cc="http://creativecommons.org/ns#"
   xmlns:rdf="http://www.w3.org/1999/02/22-rdf-syntax-ns#"
   xmlns:svg="http://www.w3.org/2000/svg"
   xmlns="http://www.w3.org/2000/svg"
   xmlns:xlink="http://www.w3.org/1999/xlink"
   xmlns:sodipodi="http://sodipodi.sourceforge.net/DTD/sodipodi-0.dtd"
   xmlns:inkscape="http://www.inkscape.org/namespaces/inkscape"
   width="400"
   height="400"
   id="svg2"
   version="1.1"
   inkscape:version="0.48.3.1 r9886"
   sodipodi:docname="google.svg">
  <defs
     id="defs4">
    <linearGradient
       gradientUnits="userSpaceOnUse"
       xlink:href="#linearGradient5139"
       id="linearGradient5174"
       y2="333.14587"
       x2="558.40503"
       y1="293.14587"
       x1="510.04929" />
    <linearGradient
       id="linearGradient5139">
      <stop
         offset="0"
         style="stop-color:#ff0000;stop-opacity:1"
         id="stop5141" />
      <stop
         offset="1"
         style="stop-color:#ff0000;stop-opacity:0"
         id="stop5143" />
    </linearGradient>
    <linearGradient
       gradientUnits="userSpaceOnUse"
       xlink:href="#linearGradient5139"
       id="linearGradient5145"
       y2="333.14587"
       x2="558.40503"
       y1="293.14587"
       x1="510.04929" />
    <linearGradient
       id="linearGradient4959-0">
      <stop
         offset="0"
         style="stop-color:#ff0000;stop-opacity:1"
         id="stop4961-8" />
      <stop
         offset="0.49885303"
         style="stop-color:#f20000;stop-opacity:1"
         id="stop4969-8" />
      <stop
         offset="0.8398968"
         style="stop-color:#af0000;stop-opacity:1"
         id="stop4967-8" />
      <stop
         offset="1"
         style="stop-color:#980000;stop-opacity:1"
         id="stop4963-0" />
    </linearGradient>
    <radialGradient
       gradientUnits="userSpaceOnUse"
       xlink:href="#linearGradient4959-0"
       id="radialGradient4965-9"
       fy="515.57648"
       fx="366.42856"
       r="83.214287"
       cy="515.57648"
       cx="366.42856" />
    <radialGradient
       gradientUnits="userSpaceOnUse"
       xlink:href="#linearGradient4959"
       id="radialGradient5119"
       fy="515.57648"
       fx="366.42856"
       r="83.214287"
       cy="515.57648"
       cx="366.42856" />
    <radialGradient
       gradientUnits="userSpaceOnUse"
       xlink:href="#linearGradient4959"
       id="radialGradient5086"
       fy="515.57648"
       fx="366.42856"
       r="83.214287"
       cy="515.57648"
       cx="366.42856" />
    <linearGradient
       id="linearGradient4959">
      <stop
         offset="0"
         style="stop-color:#ff0000;stop-opacity:1"
         id="stop4961" />
      <stop
         offset="0.49885303"
         style="stop-color:#f20000;stop-opacity:1"
         id="stop4969" />
      <stop
         offset="0.8398968"
         style="stop-color:#af0000;stop-opacity:1"
         id="stop4967" />
      <stop
         offset="1"
         style="stop-color:#980000;stop-opacity:1"
         id="stop4963" />
    </linearGradient>
    <radialGradient
       gradientUnits="userSpaceOnUse"
       xlink:href="#linearGradient4959"
       id="radialGradient4965"
       fy="515.57648"
       fx="366.42856"
       r="83.214287"
       cy="515.57648"
       cx="366.42856" />
    <filter
       id="filter5021"
       color-interpolation-filters="sRGB"
       height="1.1682101"
       width="1.2015783"
       y="-0.084105074"
       x="-0.10078913">
      <feGaussianBlur
         stdDeviation="4.030074"
         id="feGaussianBlur5023" />
    </filter>
    <radialGradient
       gradientTransform="matrix(0.72724139,-1.638703,1.599582,0.70987985,-296.49688,514.47837)"
       gradientUnits="userSpaceOnUse"
       xlink:href="#linearGradient4910"
       id="radialGradient4936"
       fy="272.38541"
       fx="392.03427"
       r="34.160709"
       cy="272.38541"
       cx="392.03427" />
    <linearGradient
       id="linearGradient4910">
      <stop
         offset="0"
         style="stop-color:#ffffff;stop-opacity:1"
         id="stop4912" />
      <stop
         offset="0.76446313"
         style="stop-color:#dd0000;stop-opacity:1"
         id="stop4918" />
      <stop
         offset="1"
         style="stop-color:#f60000;stop-opacity:1"
         id="stop4914" />
    </linearGradient>
    <radialGradient
       gradientTransform="matrix(0.72724139,-1.638703,1.599582,0.70987985,-326.78848,727.67902)"
       gradientUnits="userSpaceOnUse"
       xlink:href="#linearGradient4910"
       id="radialGradient4916"
       fy="272.38541"
       fx="392.03427"
       r="34.160709"
       cy="272.38541"
       cx="392.03427" />
    <linearGradient
       gradientTransform="translate(-62.58047,-198.14746)"
       gradientUnits="userSpaceOnUse"
       xlink:href="#linearGradient4866"
       id="linearGradient4889"
       y2="284.91595"
       x2="404.56607"
       y1="256.94247"
       x1="357.53549" />
    <linearGradient
       id="linearGradient4866">
      <stop
         offset="0"
         style="stop-color:#ffffff;stop-opacity:1"
         id="stop4868" />
      <stop
         offset="1"
         style="stop-color:#ff0000;stop-opacity:1"
         id="stop4870" />
    </linearGradient>
    <linearGradient
       gradientUnits="userSpaceOnUse"
       xlink:href="#linearGradient4866"
       id="linearGradient4872"
       y2="284.91595"
       x2="404.56607"
       y1="262.18753"
       x1="367.36996" />
    <radialGradient
       gradientUnits="userSpaceOnUse"
       xlink:href="#XMLID_6_"
       id="radialGradient3616"
       fy="96.407204"
       fx="296.8447"
       r="253.6021"
       cy="96.407204"
       cx="296.8447" />
    <radialGradient
       gradientUnits="userSpaceOnUse"
       id="XMLID_6_"
       fy="96.407204"
       fx="296.8447"
       r="253.6021"
       cy="96.407204"
       cx="296.8447">
      <stop
         offset="0"
         style="stop-color:#ffffff;stop-opacity:1"
         id="stop113" />
      <stop
         offset="0.1873"
         style="stop-color:#fbfbfb;stop-opacity:1"
         id="stop115" />
      <stop
         offset="0.3867"
         style="stop-color:#eeeeef;stop-opacity:1"
         id="stop117" />
      <stop
         offset="0.59179997"
         style="stop-color:#dad9da;stop-opacity:1"
         id="stop119" />
      <stop
         offset="0.79930001"
         style="stop-color:#bdbbbe;stop-opacity:1"
         id="stop121" />
      <stop
         offset="1"
         style="stop-color:#9a979b;stop-opacity:1"
         id="stop123" />
      <a:midPointStop
         offset="0"
         style="stop-color:#FFFFFF" />
      <a:midPointStop
         offset="0.6943"
         style="stop-color:#FFFFFF" />
      <a:midPointStop
         offset="1"
         style="stop-color:#9A979B" />
    </radialGradient>
    <linearGradient
       gradientTransform="matrix(1.35086,0,0,1.35086,1626.5564,-1095.5023)"
       gradientUnits="userSpaceOnUse"
       y2="3068.11"
       x2="-4118.39"
       y1="2978.97"
       x1="-4118.39"
       id="linearGradient4567"
       xlink:href="#linearGradient4561" />
    <linearGradient
       gradientTransform="matrix(1.35086,0,0,1.35086,1626.5564,-1095.5023)"
       gradientUnits="userSpaceOnUse"
       y2="3065.79"
       x2="-4184.29"
       y1="2934.51"
       x1="-4184.29"
       id="linearGradient4557"
       xlink:href="#linearGradient4551" />
    <linearGradient
       gradientTransform="matrix(1.35086,0,0,1.35086,1626.5564,-1095.5023)"
       gradientUnits="userSpaceOnUse"
       y2="3122.4"
       x2="-4248.93"
       y1="2978.97"
       x1="-4248.93"
       id="linearGradient4541"
       xlink:href="#linearGradient4535" />
    <linearGradient
       gradientTransform="matrix(1.35086,0,0,1.35086,1626.5564,-1095.5023)"
       gradientUnits="userSpaceOnUse"
       y2="3068.11"
       x2="-4342.5"
       y1="2979.15"
       x1="-4342.5"
       id="linearGradient4531"
       xlink:href="#linearGradient4525" />
    <linearGradient
       gradientTransform="matrix(1.35086,0,0,1.35086,1626.5564,-1095.5023)"
       gradientUnits="userSpaceOnUse"
       y2="3068.3"
       x2="-4444.64"
       y1="2978.97"
       x1="-4444.64"
       id="linearGradient4517"
       xlink:href="#linearGradient4511" />
    <linearGradient
       gradientTransform="matrix(1.35086,0,0,1.35086,1626.5564,-1095.5023)"
       gradientUnits="userSpaceOnUse"
       y2="3070.15"
       x2="-4561.09"
       y1="2932"
       x1="-4561.09"
       id="linearGradient4507"
       xlink:href="#linearGradient4501" />
    <linearGradient
       id="linearGradient4501">
      <stop
         style="stop-color:#196eef;stop-opacity:1"
         id="stop4503"
         offset="0" />
      <stop
         style="stop-color:#186dee;stop-opacity:1"
         offset="0.5"
         id="stop4509" />
      <stop
         style="stop-color:#1065e7;stop-opacity:1"
         id="stop4505"
         offset="1" />
    </linearGradient>
    <linearGradient
       id="linearGradient4511">
      <stop
         style="stop-color:#de5744;stop-opacity:1"
         id="stop4513"
         offset="0" />
      <stop
         style="stop-color:#db4632;stop-opacity:1"
         offset="0.5"
         id="stop4523" />
      <stop
         style="stop-color:#d13d29;stop-opacity:1"
         id="stop4515"
         offset="1" />
    </linearGradient>
    <linearGradient
       id="linearGradient4525">
      <stop
         style="stop-color:#ffc01a;stop-opacity:1"
         id="stop4527"
         offset="0" />
      <stop
         style="stop-color:#ffba03;stop-opacity:1"
         offset="0.5"
         id="stop4533" />
      <stop
         style="stop-color:#ffb300;stop-opacity:1"
         id="stop4529"
         offset="1" />
    </linearGradient>
    <linearGradient
       id="linearGradient4535">
      <stop
         style="stop-color:#1a6fef;stop-opacity:1"
         id="stop4537"
         offset="0" />
      <stop
         style="stop-color:#1e72ef;stop-opacity:1"
         offset="0.25"
         id="stop4547" />
      <stop
         style="stop-color:#166bec;stop-opacity:1"
         offset="0.5"
         id="stop4545" />
      <stop
         style="stop-color:#1267e9;stop-opacity:1"
         offset="0.75"
         id="stop4543" />
      <stop
         style="stop-color:#1063e5;stop-opacity:0.87"
         id="stop4539"
         offset="1" />
    </linearGradient>
    <linearGradient
       id="linearGradient4551">
      <stop
         style="stop-color:#0aa561;stop-opacity:1"
         id="stop4553"
         offset="0" />
      <stop
         style="stop-color:#009b58;stop-opacity:1"
         offset="0.5"
         id="stop4559" />
      <stop
         style="stop-color:#00914b;stop-opacity:1"
         id="stop4555"
         offset="1" />
    </linearGradient>
    <linearGradient
       id="linearGradient4561">
      <stop
         style="stop-color:#de5644;stop-opacity:1"
         id="stop4563"
         offset="0" />
      <stop
         style="stop-color:#da4531;stop-opacity:1"
         offset="0.5"
         id="stop4569" />
      <stop
         style="stop-color:#ce3a28;stop-opacity:1"
         id="stop4565"
         offset="1" />
    </linearGradient>
  </defs>
  <sodipodi:namedview
     id="base"
     pagecolor="#ffffff"
     bordercolor="#666666"
     borderopacity="1.0"
     inkscape:pageopacity="0.0"
     inkscape:pageshadow="2"
     inkscape:zoom="0.7"
     inkscape:cx="301.50154"
     inkscape:cy="207.25459"
     inkscape:document-units="px"
     inkscape:current-layer="layer1"
     showgrid="false"
     inkscape:window-width="1440"
     inkscape:window-height="841"
     inkscape:window-x="0"
     inkscape:window-y="27"
     inkscape:window-maximized="1" />
  <metadata
     id="metadata7">
    <rdf:RDF>
      <cc:Work
         rdf:about="">
        <dc:format>image/svg+xml</dc:format>
        <dc:type
           rdf:resource="http://purl.org/dc/dcmitype/StillImage" />
        <dc:title></dc:title>
      </cc:Work>
    </rdf:RDF>
  </metadata>
  <g
     inkscape:label="Layer 1"
     inkscape:groupmode="layer"
     id="layer1"
     transform="translate(0,-652.3622)">
    <g
       transform="matrix(0.53405252,0,0,0.53405252,2475.8141,-746.6044)"
       id="layer1-8">
      <path
         id="path4423"
         d="m -4520.08,2990.41 32.21,0 0,45.24 c -10.05,3.23 -22.74,5 -35.93,5 -53.46,0 -84.88,-45.78 -84.88,-90.49 0,-43.85 28.42,-74.61 68.07,-74.61 25.09,0 39.69,8.5 52.75,20.34 l 0,14.76 24.49,-24.49 c -15.49,-10.48 -37.92,-20.44 -69.98,-20.44 -70.38,0 -102.55,50.35 -102.55,91.73 0,58.9 42.9,94.38 96.81,94.38 26.14,0 49.35,-3.99 76.16,-11.45 l 0,-46.74 c 0,-2.39 1.05,-4.03 2.62,-5.47 l 8.46,-8.46 -57.45,0 z"
         inkscape:connector-curvature="0"
         style="fill:url(#linearGradient4507)" />
      <path
         id="path4425"
         d="m -4375.79,2928.93 c -40.51,0 -65.61,29.6 -65.61,61.02 0,27.12 20.22,59.32 61.19,59.32 39.41,0 63.59,-29.66 63.59,-61.63 0,-29.78 -23.63,-58.7 -59.17,-58.7 z m -6.72,8.63 c 28.56,0 41.28,37.21 41.28,63.75 0,39.47 -29.61,40.25 -33.15,40.25 -13.55,0 -23.02,-8.19 -30.11,-18.93 -6.24,-9.9 -12.34,-28.29 -12.34,-46.26 0,-17.9 5.86,-26.64 15.08,-33.07 7.54,-4.82 14.6,-5.74 19.23,-5.74 z"
         inkscape:connector-curvature="0"
         style="fill:url(#linearGradient4517)" />
      <path
         id="path4429"
         d="m -4110.98,2928.92 c -35.38,0 -54.52,22.4 -54.52,47.41 0,19.04 13.64,40.52 41.78,40.52 l 7.12,0 c 0,0 -1.94,4.71 -1.95,9.26 0,6.71 2.41,10.48 7.53,16.28 -48.42,2.95 -67.88,22.48 -67.88,43.47 0,18.38 17.6,36.47 54.59,36.47 43.79,0 66.47,-24.31 66.47,-48.17 0,-16.82 -8.38,-26.04 -29.6,-41.94 -6.24,-4.85 -7.45,-7.94 -7.45,-11.57 0,-5.2 3.11,-8.64 4.25,-9.94 2.01,-2.12 5.49,-4.54 6.79,-5.7 7.13,-6.04 17.2,-14.98 17.2,-32.82 0,-12.24 -5.09,-22.77 -16.69,-32.63 l 14.16,0 10.64,-10.64 -52.43,0 z m -9.76,7.96 c 6.42,0 11.78,2.27 17.44,6.98 6.28,5.66 16.31,20.87 16.31,39.69 0,20.31 -15.78,25.87 -24.32,25.87 -4.18,0 -9.19,-1.17 -13.43,-4.07 -9.42,-6.11 -18.77,-22.37 -18.77,-41.72 0,-17.46 10.4,-26.75 22.77,-26.75 z m 14.01,113.22 c 2.7,0 4.64,0.22 4.64,0.22 0,0 6.37,4.55 10.82,7.95 10.36,8.19 16.82,14.45 16.82,25.6 0,15.33 -14.22,27.35 -37.25,27.35 -25.28,0 -44.6,-11.77 -44.6,-30.99 0,-15.92 13.24,-29.62 49.57,-30.13 z"
         inkscape:connector-curvature="0"
         style="fill:url(#linearGradient4541)" />
      <path
         id="path4433"
         d="m -4050.88,3045.76 48.57,0 7.4,-7.4 -13.93,-1.74 c -3.75,-0.46 -5.98,-3.7 -5.98,-6.84 l 0,-146.71 c 0,-2.89 1.34,-4.37 2.32,-5.31 l 8.76,-8.76 -41.42,0 -10.78,10.78 16.1,0 0,151.97 c 0,2.16 -0.68,3.63 -2.14,5.14 z"
         inkscape:connector-curvature="0"
         style="fill:url(#linearGradient4557)" />
      <path
         id="path4435"
         d="m -3936.5,2928.93 c -27.12,0 -55.93,20.67 -55.93,57.78 0,30.65 20.67,62.56 59.29,62.56 9.63,0 17.56,-1.24 24.99,-4.65 7.97,-3.67 15.64,-9.63 21.24,-17.12 -10.57,5.33 -19.19,8.83 -30.64,8.83 -21.76,0 -42.74,-15.7 -50.08,-44.56 l 76.87,-31.07 c -4.44,-15.83 -16.96,-31.77 -45.73,-31.77 z m -5.02,8.49 c 14.55,0 25.07,11.97 25.07,21.34 0,3.03 -1.9,4.63 -5.66,6.11 l -47.25,19.11 c 0,0 -1.28,-5.95 -1.28,-12.38 0,-26.97 19.5,-34.18 29.12,-34.18 z"
         inkscape:connector-curvature="0"
         style="fill:url(#linearGradient4567)" />
      <path
         id="path4439"
         d="m -4238.33,2928.93 c -40.51,0 -65.61,29.6 -65.61,61.02 0,27.12 20.22,59.32 61.19,59.32 39.41,0 63.59,-29.66 63.59,-61.63 0,-29.78 -23.63,-58.7 -59.17,-58.7 z m -6.72,8.63 c 28.56,0 41.28,37.21 41.28,63.75 0,39.47 -29.61,40.25 -33.15,40.25 -13.55,0 -23.02,-8.19 -30.11,-18.93 -6.24,-9.9 -12.34,-28.29 -12.34,-46.26 0,-17.9 5.86,-26.64 15.08,-33.07 7.54,-4.82 14.6,-5.74 19.23,-5.74 z"
         inkscape:connector-curvature="0"
         style="fill:url(#linearGradient4531)" />
    </g>
  </g>
</svg>
