<?xml version="1.0" encoding="UTF-8" standalone="no"?>
<!-- Created with Inkscape (http://www.inkscape.org/) -->

<svg
   xmlns:a="http://ns.adobe.com/AdobeSVGViewerExtensions/3.0/"
   xmlns:dc="http://purl.org/dc/elements/1.1/"
   xmlns:cc="http://creativecommons.org/ns#"
   xmlns:rdf="http://www.w3.org/1999/02/22-rdf-syntax-ns#"
   xmlns:svg="http://www.w3.org/2000/svg"
   xmlns="http://www.w3.org/2000/svg"
   xmlns:xlink="http://www.w3.org/1999/xlink"
   xmlns:sodipodi="http://sodipodi.sourceforge.net/DTD/sodipodi-0.dtd"
   xmlns:inkscape="http://www.inkscape.org/namespaces/inkscape"
   width="400"
   height="400"
   id="svg2"
   version="1.1"
   inkscape:version="0.48.3.1 r9886"
   sodipodi:docname="nasa.svg">
  <defs
     id="defs4">
    <linearGradient
       gradientUnits="userSpaceOnUse"
       xlink:href="#linearGradient5139"
       id="linearGradient5174"
       y2="333.14587"
       x2="558.40503"
       y1="293.14587"
       x1="510.04929" />
    <linearGradient
       id="linearGradient5139">
      <stop
         offset="0"
         style="stop-color:#ff0000;stop-opacity:1"
         id="stop5141" />
      <stop
         offset="1"
         style="stop-color:#ff0000;stop-opacity:0"
         id="stop5143" />
    </linearGradient>
    <linearGradient
       gradientUnits="userSpaceOnUse"
       xlink:href="#linearGradient5139"
       id="linearGradient5145"
       y2="333.14587"
       x2="558.40503"
       y1="293.14587"
       x1="510.04929" />
    <linearGradient
       id="linearGradient4959-0">
      <stop
         offset="0"
         style="stop-color:#ff0000;stop-opacity:1"
         id="stop4961-8" />
      <stop
         offset="0.49885303"
         style="stop-color:#f20000;stop-opacity:1"
         id="stop4969-8" />
      <stop
         offset="0.8398968"
         style="stop-color:#af0000;stop-opacity:1"
         id="stop4967-8" />
      <stop
         offset="1"
         style="stop-color:#980000;stop-opacity:1"
         id="stop4963-0" />
    </linearGradient>
    <radialGradient
       gradientUnits="userSpaceOnUse"
       xlink:href="#linearGradient4959-0"
       id="radialGradient4965-9"
       fy="515.57648"
       fx="366.42856"
       r="83.214287"
       cy="515.57648"
       cx="366.42856" />
    <radialGradient
       gradientUnits="userSpaceOnUse"
       xlink:href="#linearGradient4959"
       id="radialGradient5119"
       fy="515.57648"
       fx="366.42856"
       r="83.214287"
       cy="515.57648"
       cx="366.42856" />
    <radialGradient
       gradientUnits="userSpaceOnUse"
       xlink:href="#linearGradient4959"
       id="radialGradient5086"
       fy="515.57648"
       fx="366.42856"
       r="83.214287"
       cy="515.57648"
       cx="366.42856" />
    <linearGradient
       id="linearGradient4959">
      <stop
         offset="0"
         style="stop-color:#ff0000;stop-opacity:1"
         id="stop4961" />
      <stop
         offset="0.49885303"
         style="stop-color:#f20000;stop-opacity:1"
         id="stop4969" />
      <stop
         offset="0.8398968"
         style="stop-color:#af0000;stop-opacity:1"
         id="stop4967" />
      <stop
         offset="1"
         style="stop-color:#980000;stop-opacity:1"
         id="stop4963" />
    </linearGradient>
    <radialGradient
       gradientUnits="userSpaceOnUse"
       xlink:href="#linearGradient4959"
       id="radialGradient4965"
       fy="515.57648"
       fx="366.42856"
       r="83.214287"
       cy="515.57648"
       cx="366.42856" />
    <filter
       id="filter5021"
       color-interpolation-filters="sRGB"
       height="1.1682101"
       width="1.2015783"
       y="-0.084105074"
       x="-0.10078913">
      <feGaussianBlur
         stdDeviation="4.030074"
         id="feGaussianBlur5023" />
    </filter>
    <radialGradient
       gradientTransform="matrix(0.72724139,-1.638703,1.599582,0.70987985,-296.49688,514.47837)"
       gradientUnits="userSpaceOnUse"
       xlink:href="#linearGradient4910"
       id="radialGradient4936"
       fy="272.38541"
       fx="392.03427"
       r="34.160709"
       cy="272.38541"
       cx="392.03427" />
    <linearGradient
       id="linearGradient4910">
      <stop
         offset="0"
         style="stop-color:#ffffff;stop-opacity:1"
         id="stop4912" />
      <stop
         offset="0.76446313"
         style="stop-color:#dd0000;stop-opacity:1"
         id="stop4918" />
      <stop
         offset="1"
         style="stop-color:#f60000;stop-opacity:1"
         id="stop4914" />
    </linearGradient>
    <radialGradient
       gradientTransform="matrix(0.72724139,-1.638703,1.599582,0.70987985,-326.78848,727.67902)"
       gradientUnits="userSpaceOnUse"
       xlink:href="#linearGradient4910"
       id="radialGradient4916"
       fy="272.38541"
       fx="392.03427"
       r="34.160709"
       cy="272.38541"
       cx="392.03427" />
    <linearGradient
       gradientTransform="translate(-62.58047,-198.14746)"
       gradientUnits="userSpaceOnUse"
       xlink:href="#linearGradient4866"
       id="linearGradient4889"
       y2="284.91595"
       x2="404.56607"
       y1="256.94247"
       x1="357.53549" />
    <linearGradient
       id="linearGradient4866">
      <stop
         offset="0"
         style="stop-color:#ffffff;stop-opacity:1"
         id="stop4868" />
      <stop
         offset="1"
         style="stop-color:#ff0000;stop-opacity:1"
         id="stop4870" />
    </linearGradient>
    <linearGradient
       gradientUnits="userSpaceOnUse"
       xlink:href="#linearGradient4866"
       id="linearGradient4872"
       y2="284.91595"
       x2="404.56607"
       y1="262.18753"
       x1="367.36996" />
    <radialGradient
       gradientUnits="userSpaceOnUse"
       xlink:href="#XMLID_6_"
       id="radialGradient3616"
       fy="96.407204"
       fx="296.8447"
       r="253.6021"
       cy="96.407204"
       cx="296.8447" />
    <radialGradient
       gradientUnits="userSpaceOnUse"
       id="XMLID_6_"
       fy="96.407204"
       fx="296.8447"
       r="253.6021"
       cy="96.407204"
       cx="296.8447">
      <stop
         offset="0"
         style="stop-color:#ffffff;stop-opacity:1"
         id="stop113" />
      <stop
         offset="0.1873"
         style="stop-color:#fbfbfb;stop-opacity:1"
         id="stop115" />
      <stop
         offset="0.3867"
         style="stop-color:#eeeeef;stop-opacity:1"
         id="stop117" />
      <stop
         offset="0.59179997"
         style="stop-color:#dad9da;stop-opacity:1"
         id="stop119" />
      <stop
         offset="0.79930001"
         style="stop-color:#bdbbbe;stop-opacity:1"
         id="stop121" />
      <stop
         offset="1"
         style="stop-color:#9a979b;stop-opacity:1"
         id="stop123" />
      <a:midPointStop
         offset="0"
         style="stop-color:#FFFFFF" />
      <a:midPointStop
         offset="0.6943"
         style="stop-color:#FFFFFF" />
      <a:midPointStop
         offset="1"
         style="stop-color:#9A979B" />
    </radialGradient>
  </defs>
  <sodipodi:namedview
     id="base"
     pagecolor="#ffffff"
     bordercolor="#666666"
     borderopacity="1.0"
     inkscape:pageopacity="0.0"
     inkscape:pageshadow="2"
     inkscape:zoom="0.7"
     inkscape:cx="301.50154"
     inkscape:cy="207.25459"
     inkscape:document-units="px"
     inkscape:current-layer="layer1"
     showgrid="false"
     inkscape:window-width="1440"
     inkscape:window-height="841"
     inkscape:window-x="0"
     inkscape:window-y="27"
     inkscape:window-maximized="1" />
  <metadata
     id="metadata7">
    <rdf:RDF>
      <cc:Work
         rdf:about="">
        <dc:format>image/svg+xml</dc:format>
        <dc:type
           rdf:resource="http://purl.org/dc/dcmitype/StillImage" />
        <dc:title></dc:title>
      </cc:Work>
    </rdf:RDF>
  </metadata>
  <g
     inkscape:label="Layer 1"
     inkscape:groupmode="layer"
     id="layer1"
     transform="translate(0,-652.3622)">
    <g
       id="g3432"
       transform="matrix(0.69463922,0,0,0.69463922,99.275229,769.00549)">
      <path
         id="path3314"
         d="m 252.51,120 c 0,64.618 -53.234,117.8 -117.92,117.8 C 69.905,237.8 16.67,184.615 16.67,120 16.67,55.378 68.66,2.2 134.59,2.2 198.027,2.2 252.51,55.381 252.51,120"
         inkscape:connector-curvature="0"
         style="fill:#1a5dad;fill-rule:nonzero" />
      <path
         id="path3316"
         d="m 161.19,182 c 50.379,20.724 41.636,-31.647 14.782,-71.747 -15.22,-22.718 -35.07,-41.645 -47.59,-50.78 -41.513,-30.298 -67.14,-11.922 -37.826,47.83 9.4777,19.319 21.651,32.358 31.159,44.648 7.261,9.3828 21.404,14.081 16.422,18.534 -5.6144,5.0207 -19.209,-17.124 -19.209,-17.124 -10.04,-12.11 -19.61,-25.03 -29.473,-42.76 C 66.92,70.102 70.169,28.768 110.958,46.773 c 34.615,15.288 67.678,58.166 80.971,88.616 6.1401,14.059 22.88,69.692 -30.437,47.2"
         inkscape:connector-curvature="0"
         style="fill:#ffffff;fill-rule:nonzero" />
      <path
         id="path3318"
         d="m 4.526,154.92 c 22.163,-14.76 43.176,-24.29 78.935,-36.1 50.249,-16.6 88.069,-27.758 134.47,-51.082 20.77,-10.438 56.81,-33.847 69.7,-54.198 -3.86,7.876 -15.81,23.206 -21.22,29.987 -62.96,78.833 -197.07,74.363 -261,112.21"
         inkscape:connector-curvature="0"
         style="fill:#ee293d;fill-rule:nonzero" />
      <path
         id="path3320"
         d="m 36.678,97.303 c 20.284,0.15916 18.294,-0.04072 18.531,0.1969 0.35457,0 16.196,27.282 16.196,27.517 0,0.11657 -0.11844,-9.6951 -0.11844,-21.966 0,-1.4172 -3.8995,-5.5505 -3.7829,-5.5505 5.7896,0 13.357,0.11844 13.357,0.11844 -2.8354,3.3069 -3.4018,3.0357 -3.4254,5.079 -0.07995,6.5716 -0.15468,18.716 0,32.358 0.02204,2.0448 1.5371,2.8343 4.0194,6.3777 h -18.562 c -6.0291,-10.038 -17.077,-28.869 -17.022,-28.816 0.08481,0.0863 -0.238,11.812 0.11545,21.257 0.11956,3.1216 1.5382,4.133 4.1405,6.9688 0,0 2.9931,-0.0803 -14.542,0.11694 5.3196,-2.8343 4.6131,-6.3766 4.6105,-6.4947 -0.19129,-13.052 -0.0396,-24.211 -0.0396,-31.415 0,-1.1806 -0.08033,-1.0641 -3.7433,-5.5505"
         inkscape:connector-curvature="0"
         style="fill:#ffffff;fill-rule:nonzero" />
      <path
         id="path3322"
         d="m 100.1,117.46 c 1.7033,-5.9126 3.1582,-11.197 3.8487,-14.642 0.11694,-0.59107 -1.3002,-2.7159 -3.5464,-4.8425 l -0.15916,-0.32991 c 10.831,0.03512 22.146,0.09341 22.146,0.09341 2.9554,7.2042 9.6936,27.397 14.777,39.798 1.3443,3.2778 3.6649,3.8965 3.6649,3.8965 -9.221,-0.11657 -26.333,-0.0377 -26.242,-0.11657 4.609,-4.136 4.0179,-4.136 2.0082,-10.157 h -14.421 c -2.9554,6.8478 0.92098,10.063 1.4172,10.038 -3.2823,0.16925 -14.421,0 -14.421,0 6.0291,-4.2529 5.6731,-5.5505 5.6731,-5.5505 1.6566,-5.892 3.5756,-12.347 5.2554,-18.191 l 5.9167,0.001 c -1.2711,4.0766 -2.5421,8.1498 -2.5421,8.1498 h 11.47 l -6.3852,-16.298 c 0,0 -1.2711,4.0747 -2.5425,8.148 l -5.9167,-10e-4"
         inkscape:connector-curvature="0"
         style="fill:#ffffff;fill-rule:nonzero" />
      <path
         id="path3324"
         d="m 199.17,118.05 c 1.7,-5.9111 3.1567,-11.197 3.8457,-14.644 0.11657,-0.58808 -1.3021,-2.7129 -3.5468,-4.841 l -0.16028,-0.32841 c 10.834,0.03512 22.152,0.09341 22.152,0.09341 2.9509,7.2042 9.6906,27.398 14.773,39.798 1.3428,3.2793 3.6634,3.898 3.6634,3.898 -9.2165,-0.11956 -26.329,-0.0377 -26.241,-0.11956 4.612,-4.1315 4.0209,-4.1315 2.0112,-10.155 h -14.424 c -2.9557,6.8492 0.91911,10.063 1.4156,10.04 -3.2796,0.16775 -14.42,0 -14.42,0 6.0276,-4.2529 5.6742,-5.552 5.6742,-5.552 1.6566,-5.8931 3.5759,-12.346 5.2572,-18.189 h 5.9152 c -1.274,4.0762 -2.5395,8.1509 -2.5395,8.1509 h 11.464 l -6.3848,-16.298 c 0,0 -1.267,4.0732 -2.5395,8.1468 h -5.9152"
         inkscape:connector-curvature="0"
         style="fill:#ffffff;fill-rule:nonzero" />
      <path
         id="path3326"
         d="m 180.52,108.37 c -0.23651,-8.3874 0,-11.103 0,-11.103 -3.6664,2.9539 -1.8169,2.5772 -10.993,1.0637 -26.445,-4.3635 -28.46,20.325 -14.069,25.863 12.08,4.6497 16.361,5.5606 14.539,9.9186 -0.59107,1.4201 -11.584,6.6157 -22.931,-3.8954 l 0.23352,14.644 c 1.4186,-1.4609 5.3226,-4.133 5.3226,-4.133 0.11657,0 12.3,5.3678 23.286,-0.238 16.908,-8.6195 8.4693,-22.572 -9.5741,-28.106 -15.014,-4.6064 -0.82758,-15.354 14.066,-3.8969"
         inkscape:connector-curvature="0"
         style="fill:#ffffff;fill-rule:nonzero" />
      <path
         id="path3328"
         d="m 136.25,12.898 c 0,0.5283 -0.4319,0.9617 -0.96021,0.9617 -0.52531,0 -0.96021,-0.4334 -0.96021,-0.9617 0,-0.52382 0.4349,-0.95872 0.96021,-0.95872 0.52831,0 0.96021,0.4349 0.96021,0.95872"
         inkscape:connector-curvature="0"
         style="fill:#ffffff;fill-rule:nonzero" />
      <path
         id="path3330"
         d="m 142.91,27.44 c 0,0.64786 -0.53727,1.1806 -1.1821,1.1806 -0.64935,0 -1.1836,-0.53278 -1.1836,-1.1806 0,-0.64637 0.53428,-1.1792 1.1836,-1.1792 0.64487,0 1.1821,0.53279 1.1821,1.1792"
         inkscape:connector-curvature="0"
         style="fill:#ffffff;fill-rule:nonzero" />
      <path
         id="path3332"
         d="m 160.19,51.206 c 0,0.64674 -0.53241,1.1806 -1.1821,1.1806 -0.64637,0 -1.1821,-0.53391 -1.1821,-1.1806 0,-0.64786 0.49617,-1.1821 1.1459,-1.1821 0.64935,0 1.2184,0.53428 1.2184,1.1821"
         inkscape:connector-curvature="0"
         style="fill:#ffffff;fill-rule:nonzero" />
      <path
         id="path3334"
         d="m 132.41,35.633 c 0,0.52681 -0.43191,0.95871 -0.96021,0.95871 -0.52718,0 -0.96208,-0.43191 -0.96208,-0.95871 0,-0.52569 0.4349,-0.96058 0.96208,-0.96058 0.5283,0 0.96021,0.4349 0.96021,0.96058"
         inkscape:connector-curvature="0"
         style="fill:#ffffff;fill-rule:nonzero" />
      <path
         id="path3336"
         d="m 142.76,41.096 c 0,0.52382 -0.43377,0.95871 -0.95908,0.95871 -0.52681,0 -0.96171,-0.4349 -0.96171,-0.95871 0,-0.52531 0.4349,-0.95909 0.96171,-0.95909 0.52531,0 0.95908,0.43378 0.95908,0.95909"
         inkscape:connector-curvature="0"
         style="fill:#ffffff;fill-rule:nonzero" />
      <path
         id="path3338"
         d="m 129.31,25.815 c 0,0.64823 -0.53391,1.1806 -1.1821,1.1806 -0.64786,0 -1.1821,-0.53241 -1.1821,-1.1806 0,-0.64786 0.53428,-1.1821 1.1821,-1.1821 0.64823,0 1.1821,0.53428 1.1821,1.1821"
         inkscape:connector-curvature="0"
         style="fill:#ffffff;fill-rule:nonzero" />
      <path
         id="path3340"
         d="m 113.65,35.338 c 0,0.52681 -0.4334,0.96021 -0.9617,0.96021 -0.52681,0 -0.96021,-0.4334 -0.96021,-0.96021 0,-0.52569 0.4334,-0.96058 0.96021,-0.96058 0.5283,0 0.9617,0.4349 0.9617,0.96058"
         inkscape:connector-curvature="0"
         style="fill:#ffffff;fill-rule:nonzero" />
      <path
         id="path3342"
         d="m 116.45,37.255 c 0,0.52868 -0.4334,0.96208 -0.9617,0.96208 -0.52681,0 -0.9617,-0.4334 -0.9617,-0.96208 0,-0.52531 0.43489,-0.95722 0.9617,-0.95722 0.5283,0 0.9617,0.43191 0.9617,0.95722"
         inkscape:connector-curvature="0"
         style="fill:#ffffff;fill-rule:nonzero" />
      <path
         id="path3344"
         d="m 119.26,39.175 c 0,0.5283 -0.43341,0.9617 -0.96059,0.9617 -0.5268,0 -0.9617,-0.4334 -0.9617,-0.9617 0,-0.52382 0.4349,-0.95722 0.9617,-0.95722 0.52718,0 0.96059,0.4334 0.96059,0.95722"
         inkscape:connector-curvature="0"
         style="fill:#ffffff;fill-rule:nonzero" />
      <path
         id="path3346"
         d="m 114.98,42.867 c 0,0.52681 -0.43639,0.96021 -0.96171,0.96021 -0.5283,0 -0.96207,-0.4334 -0.96207,-0.96021 0,-0.52531 0.43377,-0.95871 0.96207,-0.95871 0.52532,0 0.96171,0.4334 0.96171,0.95871"
         inkscape:connector-curvature="0"
         style="fill:#ffffff;fill-rule:nonzero" />
      <path
         id="path3348"
         d="m 92.664,58.514 c 0,0.52681 -0.4349,0.95872 -0.9617,0.95872 -0.52681,0 -0.9617,-0.43191 -0.9617,-0.95872 0,-0.52681 0.4349,-0.96058 0.9617,-0.96058 0.52681,0 0.9617,0.43378 0.9617,0.96058"
         inkscape:connector-curvature="0"
         style="fill:#ffffff;fill-rule:nonzero" />
      <path
         id="path3350"
         d="m 96.8,63.535 c 0,0.52569 -0.4349,0.95909 -0.9617,0.95909 -0.52681,0 -0.9617,-0.4334 -0.9617,-0.95909 0,-0.5283 0.4349,-0.96021 0.9617,-0.96021 0.52681,0 0.9617,0.43191 0.9617,0.96021"
         inkscape:connector-curvature="0"
         style="fill:#ffffff;fill-rule:nonzero" />
      <path
         id="path3352"
         d="m 93.512,144.58 c 0,0.52718 -0.4334,0.95909 -0.96058,0.95909 -0.52681,0 -0.96021,-0.43191 -0.96021,-0.95909 0,-0.52531 0.4334,-0.96021 0.96021,-0.96021 0.52718,0 0.96058,0.4349 0.96058,0.96021"
         inkscape:connector-curvature="0"
         style="fill:#ffffff;fill-rule:nonzero" />
      <path
         id="path3354"
         d="m 94.103,166.94 c 0,0.64786 -0.53428,1.1792 -1.1821,1.1792 -0.64823,0 -1.1821,-0.53129 -1.1821,-1.1792 0,-0.64823 0.53391,-1.1806 1.1821,-1.1806 0.64786,0 1.1821,0.53241 1.1821,1.1806"
         inkscape:connector-curvature="0"
         style="fill:#ffffff;fill-rule:nonzero" />
      <path
         id="path3356"
         d="m 81.392,178.39 c 0,0.52382 -0.4334,0.95871 -0.95872,0.95871 -0.52681,0 -0.9617,-0.43489 -0.9617,-0.95871 0,-0.5283 0.4349,-0.96058 0.9617,-0.96058 0.52531,0 0.95872,0.43228 0.95872,0.96058"
         inkscape:connector-curvature="0"
         style="fill:#ffffff;fill-rule:nonzero" />
      <path
         id="path3358"
         d="m 66.174,183.03 c 0,0.64786 -0.53727,1.1792 -1.1836,1.1792 -0.64823,0 -1.1821,-0.53129 -1.1821,-1.1792 0,-0.64936 0.53391,-1.1821 1.1821,-1.1821 0.64637,0 1.1836,0.53278 1.1836,1.1821"
         inkscape:connector-curvature="0"
         style="fill:#ffffff;fill-rule:nonzero" />
      <path
         id="path3360"
         d="m 63.07,172.7 c 0,0.64488 -0.53391,1.1792 -1.1806,1.1792 -0.64786,0 -1.1821,-0.53428 -1.1821,-1.1792 0,-0.64935 0.53428,-1.1821 1.1821,-1.1821 0.64674,0 1.1806,0.53279 1.1806,1.1821"
         inkscape:connector-curvature="0"
         style="fill:#ffffff;fill-rule:nonzero" />
      <path
         id="path3362"
         d="m 61.299,179.27 c 0,0.52681 -0.4349,0.95872 -0.9617,0.95872 -0.52681,0 -0.96208,-0.43191 -0.96208,-0.95872 0,-0.52531 0.43527,-0.96021 0.96208,-0.96021 0.52681,0 0.9617,0.4349 0.9617,0.96021"
         inkscape:connector-curvature="0"
         style="fill:#ffffff;fill-rule:nonzero" />
      <path
         id="path3364"
         d="m 49.918,173.81 c 0,0.52531 -0.4334,0.96021 -0.95872,0.96021 -0.5283,0 -0.96208,-0.4349 -0.96208,-0.96021 0,-0.52532 0.43378,-0.95909 0.96208,-0.95909 0.52531,0 0.95872,0.43377 0.95872,0.95909"
         inkscape:connector-curvature="0"
         style="fill:#ffffff;fill-rule:nonzero" />
      <path
         id="path3366"
         d="m 89.668,192.26 c 0,0.52718 -0.39716,0.96058 -0.92247,0.96058 -0.52681,0 -0.99832,-0.4334 -0.99832,-0.96058 0,-0.52531 0.4349,-0.96021 0.96021,-0.96021 0.5283,0 0.96058,0.4349 0.96058,0.96021"
         inkscape:connector-curvature="0"
         style="fill:#ffffff;fill-rule:nonzero" />
      <path
         id="path3368"
         d="m 101.64,183.48 c 0,0.64936 -0.49617,1.1821 -1.1459,1.1821 -0.64786,0 -1.2184,-0.53278 -1.2184,-1.1821 0,-0.64524 0.53391,-1.1792 1.1821,-1.1792 0.64936,0 1.1822,0.53391 1.1822,1.1792"
         inkscape:connector-curvature="0"
         style="fill:#ffffff;fill-rule:nonzero" />
      <path
         id="path3370"
         d="m 103.01,194.77 c 0,0.52681 -0.473,0.96208 -0.99682,0.96208 -0.5283,0 -0.9617,-0.43527 -0.9617,-0.96208 0,-0.52531 0.4334,-0.95722 0.9617,-0.95722 0.52382,0 0.99682,0.43191 0.99682,0.95722"
         inkscape:connector-curvature="0"
         style="fill:#ffffff;fill-rule:nonzero" />
      <path
         id="path3372"
         d="m 152.21,183.99 c 0,0.52568 -0.4334,0.96058 -0.95871,0.96058 -0.5298,0 -0.9632,-0.4349 -0.9632,-0.96058 0,-0.52681 0.4334,-0.95872 0.9632,-0.95872 0.52531,0 0.95871,0.43191 0.95871,0.95872"
         inkscape:connector-curvature="0"
         style="fill:#ffffff;fill-rule:nonzero" />
      <path
         id="path3374"
         d="m 129.31,192.11 c 0,0.5268 -0.43191,0.95871 -0.96021,0.95871 -0.52532,0 -0.96021,-0.43191 -0.96021,-0.95871 0,-0.52532 0.43489,-0.96021 0.96021,-0.96021 0.5283,0 0.96021,0.43489 0.96021,0.96021"
         inkscape:connector-curvature="0"
         style="fill:#ffffff;fill-rule:nonzero" />
      <path
         id="path3376"
         d="m 190.93,203.78 c 0,0.52538 -0.4349,0.95886 -0.96021,0.95886 -0.5283,0 -0.9632,-0.43348 -0.9632,-0.95886 0,-0.52689 0.4349,-0.96033 0.9632,-0.96033 0.52531,0 0.96021,0.43344 0.96021,0.96033"
         inkscape:connector-curvature="0"
         style="fill:#ffffff;fill-rule:nonzero" />
      <path
         id="path3378"
         d="m 195.95,158.38 c 0,0.64786 -0.53241,1.1821 -1.1821,1.1821 -0.64936,0 -1.1821,-0.53428 -1.1821,-1.1821 0,-0.64824 0.53278,-1.1821 1.1821,-1.1821 0.64973,0 1.1821,0.5339 1.1821,1.1821"
         inkscape:connector-curvature="0"
         style="fill:#ffffff;fill-rule:nonzero" />
      <path
         id="path3380"
         d="m 186.5,164.8 c 0,0.52568 -0.4334,0.96058 -0.9632,0.96058 -0.52568,0 -0.95909,-0.4349 -0.95909,-0.96058 0,-0.52681 0.43341,-0.95872 0.95909,-0.95872 0.5298,0 0.9632,0.43191 0.9632,0.95872"
         inkscape:connector-curvature="0"
         style="fill:#ffffff;fill-rule:nonzero" />
      <path
         id="path3382"
         d="m 195.81,166.65 c 0,0.64786 -0.53278,1.1821 -1.1821,1.1821 -0.64972,0 -1.1821,-0.53428 -1.1821,-1.1821 0,-0.64674 0.53242,-1.1806 1.1821,-1.1806 0.64936,0 1.1821,0.53391 1.1821,1.1806"
         inkscape:connector-curvature="0"
         style="fill:#ffffff;fill-rule:nonzero" />
      <path
         id="path3384"
         d="m 186.5,178.09 c 0,0.52531 -0.4334,0.95871 -0.9632,0.95871 -0.52568,0 -0.95909,-0.4334 -0.95909,-0.95871 0,-0.52681 0.43341,-0.96059 0.95909,-0.96059 0.5298,0 0.9632,0.43378 0.9632,0.96059"
         inkscape:connector-curvature="0"
         style="fill:#ffffff;fill-rule:nonzero" />
      <path
         id="path3386"
         d="m 210.58,151.96 c 0,0.52681 -0.43489,0.96059 -0.96058,0.96059 -0.52531,0 -0.95871,-0.43378 -0.95871,-0.96059 0,-0.5268 0.4334,-0.95871 0.95871,-0.95871 0.52569,0 0.96058,0.43191 0.96058,0.95871"
         inkscape:connector-curvature="0"
         style="fill:#ffffff;fill-rule:nonzero" />
      <path
         id="path3388"
         d="m 212.91,157.79 c 0,0.64935 -0.49318,1.1821 -1.1425,1.1821 -0.64972,0 -1.2188,-0.53279 -1.2188,-1.1821 0,-0.64824 0.53278,-1.1792 1.1792,-1.1792 0.64936,0 1.1821,0.53091 1.1821,1.1792"
         inkscape:connector-curvature="0"
         style="fill:#ffffff;fill-rule:nonzero" />
      <path
         id="path3390"
         d="m 229.5,164.73 c 0,0.64786 -0.52979,1.1806 -1.1821,1.1806 -0.64972,0 -1.1821,-0.53278 -1.1821,-1.1806 0,-0.64637 0.53242,-1.1821 1.1821,-1.1821 0.65235,0 1.1821,0.53577 1.1821,1.1821"
         inkscape:connector-curvature="0"
         style="fill:#ffffff;fill-rule:nonzero" />
      <path
         id="path3392"
         d="m 212.65,177.06 c 0,0.52532 -0.43789,0.95909 -0.96357,0.95909 -0.52532,0 -0.96021,-0.43377 -0.96021,-0.95909 0,-0.5283 0.43489,-0.96021 0.96021,-0.96021 0.52568,0 0.96357,0.43191 0.96357,0.96021"
         inkscape:connector-curvature="0"
         style="fill:#ffffff;fill-rule:nonzero" />
      <path
         id="path3394"
         d="m 223.29,167.02 c 0,0.5268 -0.4334,0.95871 -0.95871,0.95871 -0.52531,0 -0.96021,-0.43191 -0.96021,-0.95871 0,-0.52681 0.4349,-0.96021 0.96021,-0.96021 0.52531,0 0.95871,0.4334 0.95871,0.96021"
         inkscape:connector-curvature="0"
         style="fill:#ffffff;fill-rule:nonzero" />
      <path
         id="path3396"
         d="m 221.33,182.52 c 0,0.52718 -0.4334,0.95909 -0.95871,0.95909 -0.5298,0 -0.9632,-0.43191 -0.9632,-0.95909 0,-0.52531 0.4334,-0.96021 0.9632,-0.96021 0.52531,0 0.95871,0.4349 0.95871,0.96021"
         inkscape:connector-curvature="0"
         style="fill:#ffffff;fill-rule:nonzero" />
      <path
         id="path3398"
         d="m 225.84,156.76 c 0,0.81001 -0.66878,1.4754 -1.4784,1.4754 -0.81001,0 -1.4773,-0.66542 -1.4773,-1.4754 0,-0.81001 0.66729,-1.4754 1.4773,-1.4754 0.80964,0 1.4784,0.66542 1.4784,1.4754"
         inkscape:connector-curvature="0"
         style="fill:#ffffff;fill-rule:nonzero" />
      <path
         id="path3400"
         d="m 224.36,152.26 -0.44087,4.059 -4.028,0.44348 4.0602,0.44088 0.44498,4.2088 0.44536,-4.2088 3.9884,-0.51523 -4.025,-0.36913 -0.44498,-4.059"
         inkscape:connector-curvature="0"
         style="fill:#ffffff;fill-rule:nonzero" />
      <path
         id="path3402"
         d="m 215.49,182.44 c 0,0.81002 -0.66692,1.4754 -1.4769,1.4754 -0.81001,0 -1.4784,-0.66542 -1.4784,-1.4754 0,-0.81001 0.66842,-1.4754 1.4784,-1.4754 0.81001,0 1.4769,0.66542 1.4769,1.4754"
         inkscape:connector-curvature="0"
         style="fill:#ffffff;fill-rule:nonzero" />
      <path
         id="path3404"
         d="m 214.02,177.94 -0.44499,4.059 -4.0254,0.44349 4.0616,0.44386 0.44535,4.2059 0.44499,-4.2059 3.9873,-0.51672 -4.028,-0.37063 -0.44087,-4.059"
         inkscape:connector-curvature="0"
         style="fill:#ffffff;fill-rule:nonzero" />
      <path
         id="path3406"
         d="m 105.26,60.505 c 0,0.81001 -0.66691,1.4754 -1.4769,1.4754 -0.81301,0 -1.4784,-0.66542 -1.4784,-1.4754 0,-0.81001 0.66542,-1.4754 1.4784,-1.4754 0.81001,0 1.4769,0.66542 1.4769,1.4754"
         inkscape:connector-curvature="0"
         style="fill:#ffffff;fill-rule:nonzero" />
      <path
         id="path3408"
         d="m 103.78,56.003 -0.44387,4.0587 -4.028,0.44386 4.0646,0.44087 0.44386,4.2089 0.442,-4.2089 3.9903,-0.51373 -4.028,-0.37101 -0.44087,-4.0587"
         inkscape:connector-curvature="0"
         style="fill:#ffffff;fill-rule:nonzero" />
      <path
         id="path3410"
         d="m 160.23,24.783 c 0,0.81001 -0.66841,1.4769 -1.4784,1.4769 -0.81001,0 -1.4739,-0.66692 -1.4739,-1.4769 0,-0.81001 0.66393,-1.4769 1.4739,-1.4769 0.81001,0 1.4784,0.66692 1.4784,1.4769"
         inkscape:connector-curvature="0"
         style="fill:#ffffff;fill-rule:nonzero" />
      <path
         id="path3412"
         d="m 158.75,20.277 -0.44088,4.0602 -4.028,0.44386 4.0646,0.44349 0.44087,4.2077 0.44499,-4.2077 3.9888,-0.51821 -4.028,-0.36914 -0.44237,-4.0602"
         inkscape:connector-curvature="0"
         style="fill:#ffffff;fill-rule:nonzero" />
      <path
         id="path3414"
         d="m 93.4,206.07 c 0,0.81001 -0.66692,1.4755 -1.4769,1.4755 -0.813,0 -1.4799,-0.6655 -1.4799,-1.4755 0,-0.80855 0.66692,-1.477 1.4799,-1.477 0.81001,0 1.4769,0.66841 1.4769,1.477"
         inkscape:connector-curvature="0"
         style="fill:#ffffff;fill-rule:nonzero" />
      <path
         id="path3416"
         d="m 91.958,201.56 -0.442,4.0602 -4.0269,0.44367 4.0635,0.44222 0.44349,4.2077 0.44237,-4.2077 3.9899,-0.51518 -4.0265,-0.37071 L 91.958,201.56"
         inkscape:connector-curvature="0"
         style="fill:#ffffff;fill-rule:nonzero" />
      <path
         id="path3418"
         d="m 287.62,13.541 c -17.97,53.312 -89.96,94.479 -150.56,133.78 -36.559,23.714 -72.856,51.011 -97.844,74.239 -6.5866,6.1255 1.3421,-2.2899 -1.1821,0.29629 34.872,-40.153 74.986,-64.069 97.153,-79.122 37.489,-25.469 58.812,-31.888 123.49,-91.463"
         inkscape:connector-curvature="0"
         style="fill:#ee293d;fill-rule:nonzero" />
      <path
         id="path3420"
         d="m 19.515,145.62 c -6.4536,3.1571 -12.235,6.2768 -17.14,9.3219 l 2.9846,1.0861 c 4.2896,-2.6419 9.4399,-5.3973 14.865,-7.8259"
         inkscape:connector-curvature="0"
         style="fill:#ee293d;fill-rule:nonzero" />
      <path
         id="path3422"
         d="m 53.587,205.28 c -5.8995,5.1489 -11.997,10.645 -18.113,16.406 l -0.27013,4.0706 c 5.5998,-5.768 12.479,-11.998 20.418,-18.608"
         inkscape:connector-curvature="0"
         style="fill:#ee293d;fill-rule:nonzero" />
      <path
         id="path3424"
         d="m 161.19,182 c 50.379,20.724 41.636,-31.647 14.782,-71.747 -15.22,-22.718 -33.99,-40.74 -47.59,-50.78 -15.88,-11.725 -17.43,-12.697 -17.43,-12.697 35.462,16.831 67.678,58.165 80.971,88.616 6.1401,14.059 22.88,69.692 -30.437,47.2"
         inkscape:connector-curvature="0"
         style="fill:#ffffff;fill-rule:nonzero" />
    </g>
  </g>
</svg>
